<svg width="24" height="26" viewBox="0 0 24 26" fill="none" xmlns="http://www.w3.org/2000/svg">
<path fill-rule="evenodd" clip-rule="evenodd" d="M1.25 11.003C1.25 5.6511 5.39139 1.3125 10.5 1.3125C15.6086 1.3125 19.75 5.6511 19.75 11.003C19.75 16.3549 15.6086 20.6935 10.5 20.6935C5.39139 20.6935 1.25 16.3549 1.25 11.003ZM10.5 2.88393C6.21981 2.88393 2.75 6.51897 2.75 11.003C2.75 15.487 6.21981 19.122 10.5 19.122C14.7802 19.122 18.25 15.487 18.25 11.003C18.25 6.51897 14.7802 2.88393 10.5 2.88393Z" fill="#999999"/>
<path fill-rule="evenodd" clip-rule="evenodd" d="M7.14156 6.95745C8.00036 6.05782 9.18888 5.5 10.5003 5.5C11.8118 5.5 13.0003 6.05782 13.8591 6.95747C14.1519 7.26431 14.1519 7.7618 13.8591 8.06864C13.5662 8.37548 13.0913 8.37548 12.7984 8.06864C12.2095 7.45165 11.398 7.07143 10.5003 7.07143C9.60267 7.07143 8.79119 7.45165 8.20219 8.06866C7.90928 8.37548 7.43441 8.37547 7.14153 8.06862C6.84864 7.76177 6.84866 7.26428 7.14156 6.95745Z" fill="#999999"/>
<path fill-rule="evenodd" clip-rule="evenodd" d="M16.079 16.8473C16.3719 16.5405 16.8468 16.5405 17.1397 16.8473L21.3824 21.292C21.6752 21.5988 21.6752 22.0963 21.3824 22.4032C21.0895 22.71 20.6146 22.71 20.3217 22.4032L16.079 17.9585C15.7862 17.6516 15.7862 17.1542 16.079 16.8473Z" fill="#999999"/>
</svg>
