<svg width="20" height="20" viewBox="0 0 20 20" fill="none" xmlns="http://www.w3.org/2000/svg">
<path d="M3.10571 16.8943C2.24283 16.0314 2.81514 14.2198 2.37595 13.1584C1.92066 12.058 0.25 11.1723 0.25 9.99997C0.25 8.82761 1.92067 7.942 2.37595 6.84164C2.81515 5.78015 2.24283 3.96858 3.10571 3.10571C3.96858 2.24283 5.78016 2.81514 6.84165 2.37595C7.94203 1.92066 8.82766 0.25 10 0.25C11.1724 0.25 12.058 1.92067 13.1584 2.37595C14.2199 2.81515 16.0314 2.24283 16.8943 3.10571C17.7572 3.96858 17.1849 5.78016 17.6241 6.84165C18.0793 7.94203 19.75 8.82766 19.75 10C19.75 11.1724 18.0793 12.058 17.624 13.1584C17.1849 14.2199 17.7572 16.0314 16.8943 16.8943C16.0314 17.7572 14.2198 17.1849 13.1584 17.6241C12.058 18.0793 11.1723 19.75 9.99997 19.75C8.82761 19.75 7.942 18.0793 6.84164 17.624C5.78015 17.1849 3.96858 17.7572 3.10571 16.8943Z" fill="#00CB9A"/>
</svg>
