<svg width="64" height="64" viewBox="0 0 64 64" fill="none" xmlns="http://www.w3.org/2000/svg">
<path fill-rule="evenodd" clip-rule="evenodd" d="M6 12C6 8.6863 8.6863 6 12 6H52C55.3138 6 58 8.68632 58 12V52C58 55.3138 55.3138 58 52 58H12C8.68632 58 6 55.3138 6 52V12ZM12 10C10.8954 10 10 10.8954 10 12V52C10 53.1046 10.8954 54 12 54H52C53.1046 54 54 53.1046 54 52V12C54 10.8954 53.1046 10 52 10H12Z" fill="url(#paint0_linear_4241_108908)"/>
<path fill-rule="evenodd" clip-rule="evenodd" d="M15.332 24.0026C15.332 19.2162 19.2123 15.3359 23.9987 15.3359C28.7851 15.3359 32.6654 19.2162 32.6654 24.0026C32.6654 28.789 28.7851 32.6693 23.9987 32.6693C19.2123 32.6693 15.332 28.789 15.332 24.0026ZM23.9987 19.3359C21.4214 19.3359 19.332 21.4253 19.332 24.0026C19.332 26.5799 21.4214 28.6693 23.9987 28.6693C26.576 28.6693 28.6654 26.5799 28.6654 24.0026C28.6654 21.4253 26.576 19.3359 23.9987 19.3359Z" fill="url(#paint1_linear_4241_108908)"/>
<path fill-rule="evenodd" clip-rule="evenodd" d="M38.6544 36.1582C38.6544 36.1583 38.6544 36.1583 38.6543 36.1583L25.3228 54.0021H50.8882C51.4269 54.0021 51.7432 53.3961 51.4351 52.9541C51.4351 52.9541 51.4351 52.9541 51.4351 52.954L39.7354 36.176C39.4754 35.8031 38.9266 35.7941 38.6544 36.1582ZM35.45 33.7641C37.3547 31.215 41.1962 31.2777 43.0164 33.888L43.0164 33.888L54.7162 50.6661L54.7162 50.6662C56.8733 53.7599 54.6598 58.0021 50.8882 58.0021H21.332C20.5752 58.0021 19.8831 57.5749 19.544 56.8982C19.2049 56.2215 19.2768 55.4114 19.7298 54.8051L35.45 33.7641L35.45 33.7641Z" fill="url(#paint2_linear_4241_108908)"/>
<defs>
<linearGradient id="paint0_linear_4241_108908" x1="6" y1="6" x2="58" y2="58" gradientUnits="userSpaceOnUse">
<stop stop-color="#FE8C00"/>
<stop offset="1" stop-color="#F83600"/>
</linearGradient>
<linearGradient id="paint1_linear_4241_108908" x1="15.332" y1="15.3359" x2="32.6654" y2="32.6693" gradientUnits="userSpaceOnUse">
<stop stop-color="#FE8C00"/>
<stop offset="1" stop-color="#F83600"/>
</linearGradient>
<linearGradient id="paint2_linear_4241_108908" x1="19.332" y1="31.8906" x2="44.1029" y2="66.2614" gradientUnits="userSpaceOnUse">
<stop stop-color="#FE8C00"/>
<stop offset="1" stop-color="#F83600"/>
</linearGradient>
</defs>
</svg>
