  <svg width="166" height="166" viewBox="0 0 166 166" fill="none" xmlns="http://www.w3.org/2000/svg">
    <path d="M137.116 64.7408C137.752 63.7791 138.679 63.1287 139.909 62.7857C141.138 62.4426 142.265 62.5107 143.306 62.9969C144.347 63.4832 145.035 64.3308 145.378 65.5433C145.644 66.5081 145.615 67.3896 145.291 68.1824C144.973 68.9732 144.384 69.5434 143.53 69.8727L143.121 68.414C144.143 67.8212 144.502 66.9728 144.187 65.8726C143.953 65.0437 143.468 64.5024 142.732 64.2487C141.997 63.995 141.188 63.9948 140.315 64.239C139.442 64.4831 138.753 64.9119 138.254 65.5107C137.755 66.1094 137.624 66.826 137.86 67.6602C138.037 68.2827 138.379 68.7166 138.889 68.9728C139.397 69.2235 139.98 69.2935 140.634 69.172L141.036 70.5963C140.02 70.8187 139.11 70.69 138.306 70.2157C137.502 69.7413 136.957 69.0011 136.673 68.0003C136.333 66.7805 136.483 65.6951 137.116 64.7408Z" fill="var(--color-text)" />
    <path d="M139.263 73.1728C140.039 72.3258 141.058 71.8262 142.327 71.6771C143.591 71.5301 144.698 71.7775 145.654 72.4173C146.604 73.0591 147.157 74.0052 147.306 75.2576C147.456 76.5099 147.144 77.5559 146.368 78.4028C145.592 79.2497 144.573 79.7494 143.309 79.8965C142.046 80.0435 140.933 79.7981 139.983 79.1563C139.027 78.5164 138.48 77.5684 138.33 76.316C138.17 75.0676 138.487 74.0197 139.263 73.1728ZM144.89 73.5666C144.2 73.204 143.404 73.0705 142.5 73.1787C141.596 73.2869 140.85 73.595 140.267 74.114C139.682 74.6276 139.443 75.316 139.541 76.1758C139.645 77.0337 140.039 77.6449 140.731 78.0129C141.422 78.3809 142.216 78.509 143.12 78.4008C144.024 78.2926 144.768 77.979 145.353 77.4655C145.936 76.9465 146.176 76.2581 146.074 75.4056C145.975 74.5458 145.579 73.9291 144.89 73.5666Z" fill="var(--color-text)" />
    <path d="M138.963 81.616L147.594 81.8305L147.556 83.3414L140.23 83.161L140.124 87.5493L138.819 87.5151L138.963 81.616Z" fill="var(--color-text)" />
    <path d="M138.693 88.4331L147.234 89.6985L147.013 91.1961L139.765 90.1165L139.122 94.4609L137.833 94.2676L138.693 88.4331Z" fill="var(--color-text)" />
    <path d="M137.604 95.1541L145.913 97.498L144.232 103.484L142.976 103.131L144.251 98.6058L142.074 97.9933L140.897 102.183L139.709 101.848L140.886 97.6588L138.452 96.9621L137.153 101.576L135.898 101.223L137.604 95.1541Z" fill="var(--color-text)" />
    <path d="M136.247 103.355C137.346 103.023 138.481 103.112 139.645 103.634C140.807 104.149 141.635 104.928 142.13 105.968C142.626 107.009 142.612 108.1 142.107 109.253C141.697 110.163 141.11 110.824 140.358 111.233C139.607 111.642 138.794 111.698 137.924 111.413L138.536 110.031C139.7 110.233 140.517 109.801 140.982 108.755C141.331 107.965 141.3 107.24 140.9 106.576C140.491 105.909 139.874 105.391 139.042 105.025C138.211 104.659 137.408 104.54 136.647 104.688C135.878 104.833 135.325 105.298 134.975 106.088C134.713 106.68 134.699 107.231 134.932 107.754C135.163 108.271 135.568 108.694 136.153 109.021L135.555 110.374C134.633 109.894 134.011 109.212 133.691 108.334C133.372 107.457 133.425 106.542 133.845 105.591C134.346 104.427 135.149 103.687 136.247 103.355Z" fill="var(--color-text)" />
    <path d="M138.559 113.231L139.667 113.919L135.985 119.861L134.876 119.172L136.323 116.836L130.099 112.966L130.894 111.683L137.118 115.552L138.559 113.231Z" fill="var(--color-text)" />
    <path d="M126.122 118.61L132.414 124.535L131.318 125.701L123.985 124.204L123.968 124.223L128.601 128.586L127.617 129.637L121.325 123.712L122.415 122.548L129.733 124.038L129.76 124.01L125.136 119.656L126.122 118.61Z" fill="var(--color-text)" />
    <path d="M120.093 124.775L125.495 131.521L120.848 135.249L120.029 134.228L123.495 131.445L122.08 129.678L119.037 132.123L118.263 131.159L121.306 128.714L118.906 125.723L120.093 124.775Z" fill="var(--color-text)" />
    <path d="M119.085 134.905L119.766 136.019L113.803 139.668L113.122 138.554L115.461 137.12L111.634 130.862L112.922 130.075L116.749 136.332L119.085 134.905Z" fill="var(--color-text)" />
    <path d="M106.422 133.727L106.414 142.981L104.913 143.552L98.7203 136.671L100.231 136.09L101.805 137.941L105.026 136.707L104.964 134.282L106.422 133.727ZM105.054 137.93L102.595 138.868L105.129 141.872L105.14 141.868L105.161 141.86L105.054 137.93Z" fill="var(--color-text)" />
    <path d="M98.0559 136.77L99.8804 145.217L95.8589 146.085C94.9446 146.283 94.2091 146.232 93.6545 145.937C93.0998 145.642 92.7413 145.128 92.5829 144.406C92.343 143.31 92.6538 142.497 93.501 141.98L93.4985 141.957C93.1586 141.982 92.8353 141.885 92.5233 141.667C92.2112 141.45 91.994 141.038 91.8627 140.441C91.6139 139.287 91.301 138.578 90.9186 138.319L92.5028 137.975C92.7017 138.185 92.8713 138.584 92.9986 139.169C93.1724 139.983 93.4153 140.533 93.722 140.82C94.0287 141.107 94.5099 141.184 95.1616 141.038L97.3307 140.568L96.5784 137.087L98.0559 136.77ZM97.575 141.694L95.156 142.218C94.1964 142.426 93.8092 142.978 94.0071 143.876C94.1137 144.371 94.3191 144.682 94.6213 144.806C94.9234 144.929 95.3027 144.944 95.7518 144.848L98.1491 144.331L97.575 141.694Z" fill="var(--color-text)" />
    <path d="M91.4855 145.592L91.5854 146.893L84.617 147.441L84.5171 146.14L87.2507 145.924L86.6726 138.613L88.1794 138.494L88.7574 145.806L91.4855 145.592Z" fill="var(--color-text)" />
    <path d="M65.5043 137.098C65.8987 138.182 65.87 139.315 65.4168 140.511C64.9691 141.704 64.2372 142.572 63.2306 143.122C62.2221 143.667 61.1325 143.72 59.9544 143.278C59.021 142.918 58.3319 142.372 57.8817 141.64C57.4315 140.908 57.3271 140.099 57.5685 139.214L58.9822 139.748C58.8473 140.926 59.3192 141.718 60.3924 142.125C61.1969 142.433 61.9181 142.361 62.5617 141.924C63.2034 141.482 63.6845 140.834 64.0051 139.982C64.3257 139.129 64.3945 138.324 64.2094 137.564C64.019 136.805 63.5252 136.273 62.7226 135.97C62.1188 135.742 61.5654 135.753 61.0608 136.016C60.5543 136.274 60.1547 136.708 59.8634 137.305L58.4846 136.782C58.9119 135.835 59.5549 135.178 60.4135 134.81C61.2742 134.448 62.1867 134.447 63.1605 134.816C64.3292 135.25 65.11 136.015 65.5043 137.098Z" fill="var(--color-text)" />
    <path d="M57.4637 133.803C57.6844 134.931 57.4787 136.049 56.8483 137.162C56.216 138.269 55.3606 139.016 54.2801 139.397C53.1996 139.778 52.1089 139.66 51.0188 139.038C49.9287 138.417 49.2668 137.541 49.0461 136.413C48.8254 135.284 49.0312 134.167 49.6581 133.061C50.2904 131.954 51.1458 131.207 52.2243 130.82C53.3029 130.434 54.3936 130.552 55.4911 131.177C56.5866 131.797 57.243 132.675 57.4637 133.803ZM53.8034 138.105C54.5027 137.77 55.0808 137.204 55.5343 136.413C55.9878 135.622 56.179 134.835 56.1101 134.056C56.0411 133.278 55.6329 132.678 54.8887 132.249C54.1392 131.823 53.4111 131.775 52.7084 132.117C52.0037 132.453 51.4256 133.019 50.9775 133.808C50.524 134.599 50.3382 135.384 50.4071 136.163C50.4761 136.941 50.8843 137.541 51.6339 137.968C52.378 138.396 53.1041 138.439 53.8034 138.105Z" fill="var(--color-text)" />
    <path d="M50.8404 128.535L45.5581 135.366L44.363 134.439L48.8451 128.642L45.3735 125.954L46.1736 124.921L50.8404 128.535Z" fill="var(--color-text)" />
    <path d="M45.5231 124.272L39.4493 130.409L38.3741 129.34L43.5302 124.132L40.4134 121.04L41.3312 120.11L45.5231 124.272Z" fill="var(--color-text)" />
    <path d="M40.7577 119.426L33.9468 124.733L30.1257 119.823L31.1562 119.019L34.0462 122.734L35.8309 121.342L33.1581 117.904L34.1316 117.145L36.8044 120.583L38.7995 119.028L35.8549 115.247L36.8854 114.443L40.7577 119.426Z" fill="var(--color-text)" />
    <path d="M34.9488 113.445C34.5599 114.532 33.8168 115.385 32.7104 116.015C31.604 116.644 30.4894 116.848 29.3612 116.626C28.233 116.405 27.3623 115.746 26.7382 114.655C26.2496 113.783 26.0635 112.919 26.1839 112.071C26.3042 111.224 26.7386 110.532 27.4889 110.001L28.2376 111.317C27.3842 112.137 27.2437 113.047 27.8087 114.044C28.2358 114.797 28.8372 115.203 29.6096 115.272C30.382 115.341 31.1709 115.152 31.9616 114.698C32.7524 114.245 33.3211 113.67 33.6551 112.971C33.9925 112.266 33.9487 111.539 33.5236 110.792C33.202 110.228 32.7663 109.89 32.2128 109.766C31.6593 109.643 31.0749 109.72 30.4686 109.99L29.7371 108.704C30.6734 108.247 31.5869 108.147 32.4814 108.417C33.3759 108.686 34.0789 109.271 34.5921 110.176C35.2182 111.274 35.3376 112.359 34.9488 113.445Z" fill="var(--color-text)" />
    <path d="M25.6486 109.431L24.4398 109.914L21.8533 103.414L23.0621 102.931L24.0784 105.487L30.8848 102.777L31.4447 104.18L24.6383 106.891L25.6486 109.431Z" fill="var(--color-text)" />
    <path d="M28.716 96.2213L20.2253 97.7717L19.9338 96.1968L25.4757 91.1735L25.4733 91.1499L19.2172 92.292L18.9573 90.8712L27.448 89.3207L27.7375 90.8902L22.2044 95.9041L22.2108 95.9386L28.4561 94.8005L28.716 96.2213Z" fill="var(--color-text)" />
    <path d="M27.3358 87.712L18.708 88.0608L18.4625 82.101L19.7671 82.0495L19.9524 86.4975L22.2103 86.4057L22.051 82.5005L23.2828 82.4509L23.4421 86.3561L27.2702 86.2021L27.3358 87.712Z" fill="var(--color-text)" />
    <path d="M19.7809 80.8556L18.4826 80.7392L19.0815 73.7665L20.3853 73.8809L20.1497 76.617L27.4495 77.2485L27.3183 78.7564L20.0185 78.1249L19.7809 80.8556Z" fill="var(--color-text)" />
    <path d="M28.2027 71.3513L20.8186 65.7751L21.2601 64.2278L30.4745 63.4201L30.0295 64.9747L27.6073 65.1201L26.6574 68.4352L28.6291 69.8464L28.2027 71.3513ZM25.6631 67.7235L26.3888 65.1894L22.4677 65.4079L22.4663 65.4207L22.4614 65.4409L25.6631 67.7235Z" fill="var(--color-text)" />
    <path d="M30.7551 62.8093L22.8859 59.2501L24.5759 55.4938C24.9585 54.6429 25.4402 54.0811 26.0082 53.8069C26.5761 53.5327 27.2014 53.5505 27.8766 53.8569C28.8967 54.32 29.3705 55.0494 29.2851 56.0436L29.3073 56.054C29.4906 55.7664 29.758 55.5586 30.119 55.4395C30.48 55.3204 30.939 55.3864 31.4961 55.6377C32.5679 56.1249 33.3266 56.2905 33.7633 56.1438L33.0993 57.6186C32.8125 57.6555 32.3943 57.55 31.8446 57.3023C31.0883 56.9579 30.5018 56.8278 30.0866 56.8992C29.6735 56.9759 29.3259 57.3171 29.0514 57.9263L28.1403 59.9511L31.3813 61.4157L30.7551 62.8093ZM27.0912 59.4925L28.1088 57.2387C28.512 56.3434 28.2976 55.7037 27.462 55.3268C26.9989 55.115 26.6304 55.0957 26.3492 55.2656C26.0679 55.4354 25.8374 55.7279 25.6488 56.1524L24.6415 58.3841L27.0912 59.4925Z" fill="var(--color-text)" />
    <path d="M27.5708 52.2663L26.4624 51.5777L30.1574 45.6377L31.2657 46.3263L29.8167 48.6574L36.0392 52.5399L35.2388 53.8251L29.0163 49.9426L27.5708 52.2663Z" fill="var(--color-text)" />
    <path d="M49.7724 36.3916C48.6667 36.0639 47.7748 35.364 47.0838 34.2903C46.3928 33.2167 46.1254 32.1115 46.2869 30.973C46.443 29.8364 47.0499 28.9284 48.1055 28.2436C48.9523 27.7084 49.8002 27.4795 50.6528 27.5496C51.5054 27.6196 52.214 28.0181 52.7897 28.7412L51.5191 29.5594C50.6497 28.7531 49.7401 28.6609 48.7773 29.2813C48.0525 29.7475 47.6781 30.3685 47.6561 31.1495C47.634 31.9305 47.8648 32.6993 48.3598 33.4701C48.8528 34.2354 49.4578 34.7699 50.1802 35.0714C50.9026 35.3729 51.6252 35.2878 52.3499 34.8215C52.8903 34.4715 53.2092 34.0179 53.2974 33.4521C53.3855 32.8863 53.2803 32.3111 52.9744 31.723L54.2144 30.922C54.7243 31.8346 54.8696 32.7388 54.6563 33.6508C54.4429 34.5628 53.895 35.296 53.0217 35.8592C51.9532 36.5426 50.8726 36.7212 49.7724 36.3916Z" fill="var(--color-text)" />
    <path d="M57.2091 31.8688C56.1717 31.3752 55.3963 30.5408 54.8794 29.3731C54.3625 28.2054 54.2746 27.0718 54.6102 25.9741C54.9439 24.8711 55.6886 24.0724 56.8384 23.5619C57.9882 23.0514 59.0827 23.0456 60.1201 23.5392C61.1575 24.0329 61.9309 24.8618 62.4478 26.0295C62.9647 27.1972 63.0527 28.3309 62.719 29.4339C62.3853 30.537 61.6425 31.3411 60.4928 31.8516C59.343 32.3621 58.2465 32.3624 57.2091 31.8688ZM55.9289 26.3653C55.7844 27.1296 55.8922 27.9309 56.2632 28.7652C56.6343 29.5994 57.1488 30.222 57.8123 30.6308C58.4757 31.0397 59.2033 31.0693 59.9897 30.7218C60.776 30.3742 61.2469 29.8163 61.3968 29.0501C61.5468 28.2838 61.4316 27.4791 61.0679 26.6483C60.6969 25.814 60.1823 25.1915 59.5155 24.79C58.8466 24.3831 58.1244 24.3515 57.3327 24.701C56.5443 25.0432 56.0735 25.6011 55.9289 26.3653Z" fill="var(--color-text)" />
    <path d="M65.366 29.6839L63.0079 21.3703L64.4627 20.9573L66.4672 28.0131L70.6871 26.8146L71.0462 28.0704L65.366 29.6839Z" fill="var(--color-text)" />
    <path d="M71.9545 27.9193L70.6229 19.3793L72.1192 19.1476L73.2511 26.3982L77.5875 25.7218L77.7872 27.011L71.9545 27.9193Z" fill="var(--color-text)" />
    <path d="M78.6667 26.9602L78.4345 18.3268L84.6431 18.1652L84.6775 19.4717L79.9796 19.5927L80.0423 21.8521L84.3944 21.7405L84.4268 22.9741L80.0747 23.0857L80.1429 25.613L84.9319 25.4897L84.9663 26.7962L78.6667 26.9602Z" fill="var(--color-text)" />
    <path d="M86.9143 25.8371C86.2721 24.8806 86.0282 23.773 86.1734 22.5054C86.326 21.2413 86.8186 20.2215 87.6676 19.4401C88.5132 18.6661 89.5627 18.3516 90.8109 18.4985C91.7998 18.6232 92.6058 18.9863 93.2163 19.5862C93.8267 20.1861 94.123 20.9495 94.1064 21.8635L92.6078 21.685C92.4515 20.5149 91.8086 19.8593 90.6682 19.7222C89.8111 19.6231 89.1255 19.8604 88.6099 20.4468C88.0943 21.0333 87.7835 21.7783 87.6774 22.682C87.5713 23.5856 87.6973 24.3864 88.0644 25.0749C88.4314 25.7634 89.0417 26.1609 89.8933 26.262C90.5329 26.336 91.068 26.1903 91.4947 25.8141C91.9214 25.4379 92.2059 24.9234 92.3446 24.2778L93.8102 24.4499C93.6255 25.4741 93.1612 26.2689 92.4154 26.8287C91.6695 27.3885 90.7812 27.6076 89.7505 27.4858C88.5024 27.3388 87.5545 26.7881 86.9143 25.8371Z" fill="var(--color-text)" />
    <path d="M95.6605 20.7267L95.9916 19.4651L102.755 21.2488L102.424 22.5105L99.767 21.8088L97.9073 28.9029L96.443 28.5156L98.3027 21.4215L95.6605 20.7267Z" fill="var(--color-text)" />
    <path d="M104.45 31.0557L108.244 23.3005L109.683 24.004L110.423 31.4585L110.445 31.4688L113.241 25.7518L114.532 26.3862L110.738 34.1415L109.305 33.436L108.565 25.9997L108.535 25.986L105.746 31.6882L104.45 31.0557Z" fill="var(--color-text)" />
    <path d="M112.126 35.0091L116.958 27.8515L121.895 31.196L121.167 32.2769L117.484 29.783L116.217 31.6551L119.453 33.8456L118.765 34.8688L115.529 32.6783L113.384 35.8578L112.126 35.0091Z" fill="var(--color-text)" />
    <path d="M122.096 32.9838L122.958 32.0015L128.215 36.6157L127.354 37.598L125.29 35.7844L120.46 41.2973L119.325 40.2994L124.155 34.7865L122.096 32.9838Z" fill="var(--color-text)" />
  </svg>
