<svg width="64" height="64" viewBox="0 0 64 64" fill="none" xmlns="http://www.w3.org/2000/svg">
<path fill-rule="evenodd" clip-rule="evenodd" d="M5.14518 21.3675C5.52517 20.9212 6.08182 20.6641 6.66798 20.6641H57.3346C57.9208 20.6641 58.4775 20.9212 58.8575 21.3675C59.2374 21.8138 59.4025 22.4043 59.3091 22.983L53.7091 57.6497C53.5525 58.6186 52.7161 59.3307 51.7346 59.3307H12.268C11.2865 59.3307 10.4501 58.6186 10.2936 57.6497L4.69358 22.983C4.6001 22.4043 4.76518 21.8138 5.14518 21.3675ZM9.01699 24.6641L13.9708 55.3307H50.0318L54.9856 24.6641H9.01699Z" fill="url(#paint0_linear_4241_108915)"/>
<path fill-rule="evenodd" clip-rule="evenodd" d="M15.332 22.6641C15.332 12.8903 22.6337 4.66406 31.9987 4.66406C41.3637 4.66406 48.6654 12.8903 48.6654 22.6641C48.6654 23.7686 47.7699 24.6641 46.6654 24.6641C45.5608 24.6641 44.6654 23.7686 44.6654 22.6641C44.6654 14.7647 38.834 8.66406 31.9987 8.66406C25.1634 8.66406 19.332 14.7647 19.332 22.6641C19.332 23.7686 18.4366 24.6641 17.332 24.6641C16.2275 24.6641 15.332 23.7686 15.332 22.6641Z" fill="url(#paint1_linear_4241_108915)"/>
<path d="M22.6667 37.3333C24.1394 37.3333 25.3333 36.1394 25.3333 34.6667C25.3333 33.1939 24.1394 32 22.6667 32C21.1939 32 20 33.1939 20 34.6667C20 36.1394 21.1939 37.3333 22.6667 37.3333Z" fill="url(#paint2_linear_4241_108915)"/>
<path fill-rule="evenodd" clip-rule="evenodd" d="M25.6565 42.8792C25.0412 41.9697 23.806 41.726 22.8908 42.3361C21.9718 42.9488 21.7234 44.1906 22.3361 45.1096L24.0002 44.0002C22.3361 45.1096 22.3366 45.1104 22.3371 45.1112L22.3382 45.1128L22.3406 45.1164L22.3462 45.1246L22.3605 45.1455L22.4016 45.2042C22.4345 45.2506 22.4788 45.3113 22.5343 45.3842C22.6453 45.5299 22.8022 45.7254 23.0054 45.9539C23.4103 46.4095 24.0074 47.0056 24.8002 47.6002C26.3919 48.794 28.8025 50.0002 32.0002 50.0002C35.1979 50.0002 37.6085 48.794 39.2002 47.6002C39.993 47.0056 40.5901 46.4095 40.995 45.9539C41.1982 45.7254 41.3551 45.5299 41.4661 45.3842C41.5216 45.3113 41.5659 45.2506 41.5989 45.2042L41.64 45.1455L41.6542 45.1246L41.6598 45.1164L41.6622 45.1128L41.6633 45.1112C41.6638 45.1104 41.6643 45.1096 40.0002 44.0002L41.6643 45.1096C42.277 44.1906 42.0287 42.9488 41.1096 42.3361C40.1944 41.726 38.9593 41.9697 38.3439 42.8792C38.3446 42.8783 38.3449 42.8778 38.3449 42.8778L38.3448 42.8779L38.3423 42.8816L38.3397 42.8855L38.3391 42.8861C38.3413 42.8829 38.3429 42.8806 38.3439 42.8793C38.3416 42.8826 38.3393 42.886 38.3371 42.8894L38.338 42.888L38.3391 42.8861C38.3304 42.8983 38.3121 42.9236 38.2843 42.96C38.2287 43.0331 38.1356 43.15 38.0054 43.2965C37.7436 43.591 37.3407 43.9948 36.8002 44.4002C35.7252 45.2065 34.1359 46.0002 32.0002 46.0002C29.8645 46.0002 28.2752 45.2065 27.2002 44.4002C26.6597 43.9948 26.2568 43.591 25.995 43.2965C25.8648 43.15 25.7717 43.0331 25.7161 42.96C25.6883 42.9236 25.6701 42.8983 25.6614 42.8861C25.6591 42.8829 25.6575 42.8806 25.6566 42.8793" fill="url(#paint3_linear_4241_108915)"/>
<path d="M41.3346 37.3333C42.8074 37.3333 44.0013 36.1394 44.0013 34.6667C44.0013 33.1939 42.8074 32 41.3346 32C39.8619 32 38.668 33.1939 38.668 34.6667C38.668 36.1394 39.8619 37.3333 41.3346 37.3333Z" fill="url(#paint4_linear_4241_108915)"/>
<defs>
<linearGradient id="paint0_linear_4241_108915" x1="4.66797" y1="20.6641" x2="41.1269" y2="72.2094" gradientUnits="userSpaceOnUse">
<stop stop-color="#FE8C00"/>
<stop offset="1" stop-color="#F83600"/>
</linearGradient>
<linearGradient id="paint1_linear_4241_108915" x1="15.332" y1="4.66406" x2="32.9791" y2="34.0758" gradientUnits="userSpaceOnUse">
<stop stop-color="#FE8C00"/>
<stop offset="1" stop-color="#F83600"/>
</linearGradient>
<linearGradient id="paint2_linear_4241_108915" x1="20" y1="32" x2="25.3333" y2="37.3333" gradientUnits="userSpaceOnUse">
<stop stop-color="#FE8C00"/>
<stop offset="1" stop-color="#F83600"/>
</linearGradient>
<linearGradient id="paint3_linear_4241_108915" x1="22" y1="42" x2="27.5174" y2="55.7935" gradientUnits="userSpaceOnUse">
<stop stop-color="#FE8C00"/>
<stop offset="1" stop-color="#F83600"/>
</linearGradient>
<linearGradient id="paint4_linear_4241_108915" x1="38.668" y1="32" x2="44.0013" y2="37.3333" gradientUnits="userSpaceOnUse">
<stop stop-color="#FE8C00"/>
<stop offset="1" stop-color="#F83600"/>
</linearGradient>
</defs>
</svg>
