<svg width="64" height="64" viewBox="0 0 64 64" fill="none" xmlns="http://www.w3.org/2000/svg">
<path fill-rule="evenodd" clip-rule="evenodd" d="M6 38.6641C6 37.5595 6.89543 36.6641 8 36.6641H26.6667C27.7712 36.6641 28.6667 37.5595 28.6667 38.6641V57.3307C28.6667 58.4353 27.7712 59.3307 26.6667 59.3307H8C6.89543 59.3307 6 58.4353 6 57.3307V38.6641ZM10 40.6641V55.3307H24.6667V40.6641H10Z" fill="url(#paint0_linear_4241_108901)"/>
<path fill-rule="evenodd" clip-rule="evenodd" d="M32.0013 3.33594C32.71 3.33594 33.3658 3.71102 33.7252 4.3219L47.0585 26.9886C47.4223 27.6069 47.4269 28.3728 47.0707 28.9956C46.7145 29.6183 46.0521 30.0026 45.3346 30.0026H18.668C17.9505 30.0026 17.2881 29.6183 16.9319 28.9956C16.5757 28.3728 16.5803 27.6069 16.9441 26.9886L30.2774 4.3219C30.6368 3.71102 31.2926 3.33594 32.0013 3.33594ZM22.1648 26.0026H41.8378L32.0013 9.28055L22.1648 26.0026Z" fill="url(#paint1_linear_4241_108901)"/>
<path fill-rule="evenodd" clip-rule="evenodd" d="M47.9987 39.3359C43.2122 39.3359 39.332 43.2161 39.332 48.0026C39.332 52.7891 43.2122 56.6693 47.9987 56.6693C52.7852 56.6693 56.6654 52.7891 56.6654 48.0026C56.6654 43.2161 52.7852 39.3359 47.9987 39.3359ZM35.332 48.0026C35.332 41.007 41.0031 35.3359 47.9987 35.3359C54.9943 35.3359 60.6654 41.007 60.6654 48.0026C60.6654 54.9982 54.9943 60.6693 47.9987 60.6693C41.0031 60.6693 35.332 54.9982 35.332 48.0026Z" fill="url(#paint2_linear_4241_108901)"/>
<defs>
<linearGradient id="paint0_linear_4241_108901" x1="6" y1="36.6641" x2="28.6667" y2="59.3307" gradientUnits="userSpaceOnUse">
<stop stop-color="#FE8C00"/>
<stop offset="1" stop-color="#F83600"/>
</linearGradient>
<linearGradient id="paint1_linear_4241_108901" x1="16.668" y1="3.33594" x2="43.0763" y2="33.7055" gradientUnits="userSpaceOnUse">
<stop stop-color="#FE8C00"/>
<stop offset="1" stop-color="#F83600"/>
</linearGradient>
<linearGradient id="paint2_linear_4241_108901" x1="35.332" y1="35.3359" x2="60.6654" y2="60.6693" gradientUnits="userSpaceOnUse">
<stop stop-color="#FE8C00"/>
<stop offset="1" stop-color="#F83600"/>
</linearGradient>
</defs>
</svg>
