<svg width="64" height="64" viewBox="0 0 64 64" fill="none" xmlns="http://www.w3.org/2000/svg">
<path fill-rule="evenodd" clip-rule="evenodd" d="M9.33464 19.3359C8.96644 19.3359 8.66797 19.6344 8.66797 20.0026V49.3359C8.66797 49.7041 8.96644 50.0026 9.33464 50.0026H54.668C55.0362 50.0026 55.3346 49.7041 55.3346 49.3359V20.0026C55.3346 19.6344 55.0362 19.3359 54.668 19.3359H9.33464ZM4.66797 20.0026C4.66797 17.4253 6.75731 15.3359 9.33464 15.3359H54.668C57.2453 15.3359 59.3346 17.4253 59.3346 20.0026V49.3359C59.3346 51.9133 57.2453 54.0026 54.668 54.0026H9.33464C6.75731 54.0026 4.66797 51.9133 4.66797 49.3359V20.0026Z" fill="url(#paint0_linear_4241_108892)"/>
<path fill-rule="evenodd" clip-rule="evenodd" d="M31.332 26.6641C31.332 25.5595 32.2275 24.6641 33.332 24.6641H57.332C58.4366 24.6641 59.332 25.5595 59.332 26.6641V41.3307C59.332 42.4353 58.4366 43.3307 57.332 43.3307H33.332C32.2275 43.3307 31.332 42.4353 31.332 41.3307V26.6641ZM35.332 28.6641V39.3307H55.332V28.6641H35.332Z" fill="url(#paint1_linear_4241_108892)"/>
<path fill-rule="evenodd" clip-rule="evenodd" d="M57.332 22C58.4366 22 59.332 22.8954 59.332 24V44C59.332 45.1046 58.4366 46 57.332 46C56.2275 46 55.332 45.1046 55.332 44V24C55.332 22.8954 56.2275 22 57.332 22Z" fill="url(#paint2_linear_4241_108892)"/>
<path fill-rule="evenodd" clip-rule="evenodd" d="M10.2708 10.2814C11.557 8.57508 13.6539 7.33594 16.668 7.33594H36.0013C37.3587 7.33594 39.5069 7.76925 41.3561 9.29208C43.2904 10.8851 44.668 13.482 44.668 17.3359C44.668 18.4405 43.7725 19.3359 42.668 19.3359C41.5634 19.3359 40.668 18.4405 40.668 17.3359C40.668 14.5232 39.7122 13.1201 38.8132 12.3798C37.829 11.5693 36.6439 11.3359 36.0013 11.3359H16.668C14.882 11.3359 13.979 12.0072 13.4651 12.689C12.8786 13.4671 12.668 14.4512 12.668 15.0673V17.3359C12.668 18.4405 11.7725 19.3359 10.668 19.3359C9.5634 19.3359 8.66797 18.4405 8.66797 17.3359V15.0673C8.66797 13.7729 9.05735 11.8913 10.2708 10.2814Z" fill="url(#paint3_linear_4241_108892)"/>
<path d="M44.668 36C45.7725 36 46.668 35.1046 46.668 34C46.668 32.8954 45.7725 32 44.668 32C43.5634 32 42.668 32.8954 42.668 34C42.668 35.1046 43.5634 36 44.668 36Z" fill="url(#paint4_linear_4241_108892)"/>
<defs>
<linearGradient id="paint0_linear_4241_108892" x1="4.66797" y1="15.3359" x2="41.1269" y2="66.8813" gradientUnits="userSpaceOnUse">
<stop stop-color="#FE8C00"/>
<stop offset="1" stop-color="#F83600"/>
</linearGradient>
<linearGradient id="paint1_linear_4241_108892" x1="31.332" y1="24.6641" x2="48.5628" y2="50.5102" gradientUnits="userSpaceOnUse">
<stop stop-color="#FE8C00"/>
<stop offset="1" stop-color="#F83600"/>
</linearGradient>
<linearGradient id="paint2_linear_4241_108892" x1="55.332" y1="22" x2="63.1158" y2="23.2973" gradientUnits="userSpaceOnUse">
<stop stop-color="#FE8C00"/>
<stop offset="1" stop-color="#F83600"/>
</linearGradient>
<linearGradient id="paint3_linear_4241_108892" x1="8.66797" y1="7.33594" x2="15.868" y2="28.9359" gradientUnits="userSpaceOnUse">
<stop stop-color="#FE8C00"/>
<stop offset="1" stop-color="#F83600"/>
</linearGradient>
<linearGradient id="paint4_linear_4241_108892" x1="42.668" y1="32" x2="46.668" y2="36" gradientUnits="userSpaceOnUse">
<stop stop-color="#FE8C00"/>
<stop offset="1" stop-color="#F83600"/>
</linearGradient>
</defs>
</svg>
