<svg width="459" height="129" viewBox="0 0 459 129" fill="none" xmlns="http://www.w3.org/2000/svg">
<path d="M9.88152 50.4331C9.83152 50.9331 9.54152 51.8131 8.93152 52.7831C7.51152 55.0331 5.02152 55.8331 2.41152 54.1831C-0.0884767 52.6131 -0.708477 49.8531 0.851523 47.3731C1.48152 46.3831 2.09152 45.8831 2.40152 45.7031L3.08152 46.4831C2.64152 46.7531 2.15152 47.2231 1.73152 47.8831C0.551523 49.7531 0.961523 51.7531 3.06152 53.0731C5.01152 54.3031 6.98152 53.9731 8.20152 52.0331C8.60152 51.4031 8.87152 50.6831 8.93152 50.1431L9.88152 50.4331Z" fill="url(#paint0_linear_4773_228613)"/>
<path d="M11.1826 40.1895C13.8926 41.9795 14.2426 44.5695 12.9226 46.5795C11.5526 48.6595 8.97259 49.0595 6.59259 47.4895C4.09259 45.8395 3.48259 43.2095 4.86259 41.0995C6.28259 38.9595 8.84259 38.6495 11.1826 40.1895ZM7.28259 46.3895C8.96259 47.4995 11.0726 47.5795 12.1326 45.9795C13.1926 44.3695 12.3126 42.4795 10.5226 41.2995C8.95259 40.2695 6.78259 40.0095 5.66259 41.6995C4.55259 43.3895 5.55259 45.2495 7.28259 46.3895Z" fill="url(#paint1_linear_4773_228613)"/>
<path d="M8.32812 36.1719L9.02812 35.1719L15.9281 39.9919L18.2381 36.6919L19.0781 37.2819L16.0681 41.5819L8.32812 36.1719Z" fill="url(#paint2_linear_4773_228613)"/>
<path d="M12.25 30.6028L12.98 29.6328L19.71 34.6728L22.13 31.4428L22.95 32.0528L19.8 36.2528L12.25 30.6028Z" fill="url(#paint3_linear_4773_228613)"/>
<path d="M23.3862 24.4828L21.0562 27.3128L23.6863 29.4728L26.2763 26.3128L27.0662 26.9628L23.6963 31.0628L16.4062 25.0728L19.6362 21.1328L20.4263 21.7828L17.9662 24.7828L20.2663 26.6728L22.5963 23.8428L23.3862 24.4828Z" fill="url(#paint4_linear_4773_228613)"/>
<path d="M32.3023 20.85C32.1623 21.33 31.7023 22.13 30.9123 22.97C29.0823 24.9 26.4923 25.21 24.2423 23.08C22.0923 21.05 22.0123 18.22 24.0223 16.09C24.8323 15.24 25.5223 14.87 25.8623 14.75L26.3823 15.65C25.9023 15.83 25.3323 16.19 24.7923 16.76C23.2723 18.37 23.2923 20.41 25.0923 22.11C26.7723 23.7 28.7623 23.75 30.3423 22.08C30.8523 21.54 31.2623 20.89 31.4223 20.37L32.3023 20.85Z" fill="url(#paint5_linear_4773_228613)"/>
<path d="M29.6312 12.4075L27.4512 14.2775L26.7812 13.4875L32.0912 8.9375L32.7612 9.7275L30.5712 11.6075L36.0412 17.9875L35.1012 18.7875L29.6312 12.4075Z" fill="url(#paint6_linear_4773_228613)"/>
<path d="M41.0009 14.13L36.7109 5.73L37.8909 5.13L42.7609 8C43.8909 8.67 44.8209 9.3 45.6609 9.96L45.6809 9.93C45.0109 8.86 44.4609 7.85 43.7909 6.54L42.0009 3.02L43.0209 2.5L47.3109 10.9L46.2109 11.46L41.3709 8.56C40.3109 7.92 39.2609 7.25 38.3709 6.56L38.3409 6.6C38.9409 7.63 39.4809 8.62 40.2009 10.02L42.0309 13.61L41.0009 14.13Z" fill="url(#paint7_linear_4773_228613)"/>
<path d="M46.7031 1.35L51.6631 0.25L51.8831 1.25L48.1131 2.09L48.7931 5.15L52.2831 4.38L52.5031 5.36L49.0131 6.13L49.9431 10.3L48.7531 10.56L46.7031 1.35Z" fill="url(#paint8_linear_4773_228613)"/>
<path d="M56.7997 1.13781L53.9297 1.04781L53.9597 0.0078125L60.9397 0.237812L60.9097 1.27781L58.0297 1.18781L57.7597 9.58781L56.5297 9.54781L56.7997 1.13781Z" fill="url(#paint9_linear_4773_228613)"/>
<path d="M66.0894 8.45062L64.0194 10.7906L62.8594 10.2906L69.5294 2.89063L70.8794 3.47062L70.1194 13.4106L68.9194 12.9006L69.1694 9.78062L66.0894 8.45062ZM69.2994 8.79062L69.5194 5.93062C69.5694 5.28062 69.6594 4.71062 69.7494 4.15062L69.7194 4.14062C69.3694 4.60062 68.9994 5.07062 68.6094 5.52062L66.6894 7.67062L69.2994 8.79062Z" fill="url(#paint10_linear_4773_228613)"/>
<path d="M76.1322 6.45313C76.7122 6.70313 77.4622 7.16313 78.1522 7.64313C79.2122 8.39313 79.7622 9.07313 79.9322 9.85313C80.0822 10.4731 79.9222 11.1531 79.5022 11.7431C78.7822 12.7631 77.6622 12.9831 76.6622 12.6731L76.6422 12.7031C77.0922 13.3331 77.0522 14.1331 76.6722 15.0531C76.1622 16.3031 75.8222 17.1731 75.7622 17.5831L74.7322 16.8531C74.7622 16.5431 75.0622 15.7631 75.5222 14.6531C76.0522 13.4331 75.9222 12.7431 75.0422 12.0631L74.1022 11.4031L71.7322 14.7331L70.7422 14.0231L76.1322 6.45313ZM74.6422 10.6631L75.6622 11.3831C76.7222 12.1331 77.8122 12.0331 78.4322 11.1531C79.1422 10.1631 78.7222 9.21313 77.6822 8.46313C77.2022 8.12313 76.8322 7.92313 76.6322 7.85313L74.6422 10.6631Z" fill="url(#paint11_linear_4773_228613)"/>
<path d="M83.6631 13.5169L81.5631 11.5569L82.2731 10.7969L87.3931 15.5569L86.6831 16.3169L84.5731 14.3569L78.8531 20.5069L77.9531 19.6669L83.6631 13.5169Z" fill="url(#paint12_linear_4773_228613)"/>
<path d="M93.2449 37.0517C92.7949 36.8317 92.0749 36.2417 91.3949 35.3317C89.7949 33.2017 89.9349 30.5917 92.4149 28.7317C94.7749 26.9617 97.5849 27.3617 99.3349 29.7017C100.045 30.6417 100.285 31.3917 100.345 31.7417L99.3749 32.1017C99.2749 31.6017 99.0149 30.9717 98.5449 30.3417C97.2149 28.5717 95.2049 28.2417 93.2249 29.7317C91.3749 31.1217 90.9849 33.0717 92.3649 34.9117C92.8149 35.5017 93.3849 36.0217 93.8749 36.2617L93.2449 37.0517Z" fill="url(#paint13_linear_4773_228613)"/>
<path d="M102.184 42.0932C99.5041 43.9332 96.9641 43.2932 95.6041 41.3032C94.1841 39.2532 94.7841 36.7132 97.1441 35.0932C99.6141 33.3932 102.284 33.8132 103.714 35.8932C105.174 38.0132 104.494 40.5032 102.184 42.0932ZM97.8941 36.1532C96.2341 37.2932 95.3641 39.2232 96.4541 40.8032C97.5541 42.3932 99.6341 42.2832 101.404 41.0732C102.954 40.0132 104.004 38.0832 102.854 36.4132C101.714 34.7432 99.6041 34.9732 97.8941 36.1532Z" fill="url(#paint14_linear_4773_228613)"/>
<path d="M106.926 40.9688L107.596 41.9888L100.546 46.5788L102.746 49.9587L101.886 50.5187L99.0156 46.1187L106.926 40.9688Z" fill="url(#paint15_linear_4773_228613)"/>
<path d="M110.55 46.6016L111.2 47.6316L104.08 52.1216L106.23 55.5316L105.37 56.0816L102.57 51.6416L110.55 46.6016Z" fill="url(#paint16_linear_4773_228613)"/>
<path d="M112.4 59.0534L110.47 55.9334L107.58 57.7234L109.73 61.2034L108.86 61.7434L106.07 57.2334L114.09 52.2734L116.77 56.6034L115.9 57.1434L113.86 53.8434L111.32 55.4134L113.25 58.5334L112.4 59.0534Z" fill="url(#paint17_linear_4773_228613)"/>
<path d="M113.358 68.5337C112.938 68.2637 112.278 67.6237 111.678 66.6437C110.288 64.3737 110.678 61.7937 113.328 60.1737C115.848 58.6337 118.598 59.3037 120.128 61.7937C120.738 62.7937 120.908 63.5637 120.938 63.9237L119.938 64.1937C119.888 63.6837 119.688 63.0337 119.278 62.3637C118.128 60.4737 116.158 59.9537 114.038 61.2537C112.068 62.4537 111.498 64.3637 112.688 66.3237C113.078 66.9537 113.598 67.5237 114.058 67.8137L113.358 68.5337Z" fill="url(#paint18_linear_4773_228613)"/>
<path d="M122.201 67.4978L120.701 65.0478L121.581 64.5078L125.221 70.4678L124.341 71.0078L122.841 68.5478L115.671 72.9278L115.031 71.8778L122.201 67.4978Z" fill="url(#paint19_linear_4773_228613)"/>
<path d="M119.242 78.7969L127.242 73.7969L127.942 74.9269L125.492 80.0169C124.922 81.1969 124.372 82.1869 123.792 83.0769L123.822 83.0969C124.832 82.3369 125.792 81.7069 127.032 80.9269L130.382 78.8369L130.992 79.8069L122.992 84.8069L122.342 83.7669L124.812 78.6869C125.352 77.5769 125.932 76.4669 126.552 75.5269L126.522 75.4969C125.552 76.1869 124.602 76.8069 123.272 77.6369L119.852 79.7769L119.242 78.7969Z" fill="url(#paint20_linear_4773_228613)"/>
<path d="M132.042 81.4688L134.792 85.7387L133.932 86.2887L131.842 83.0387L129.202 84.7387L131.132 87.7387L130.282 88.2887L128.352 85.2887L124.762 87.5987L124.102 86.5788L132.042 81.4688Z" fill="url(#paint21_linear_4773_228613)"/>
<path d="M135.743 89.0616L134.143 86.6816L135.003 86.1016L138.903 91.8916L138.043 92.4716L136.433 90.0816L129.463 94.7716L128.773 93.7516L135.743 89.0616Z" fill="url(#paint22_linear_4773_228613)"/>
<path d="M136.743 100.049L133.773 101.039L133.023 100.029L142.503 96.9688L143.383 98.1488L137.733 106.369L136.953 105.329L138.733 102.749L136.743 100.049ZM139.353 101.959L140.983 99.5987C141.353 99.0587 141.713 98.6187 142.073 98.1787L142.053 98.1588C141.523 98.3788 140.963 98.5988 140.403 98.7988L137.663 99.6888L139.353 101.959Z" fill="url(#paint23_linear_4773_228613)"/>
<path d="M145.949 101.758C146.439 102.148 147.059 102.778 147.599 103.428C148.439 104.428 148.789 105.228 148.759 106.018C148.739 106.648 148.419 107.268 147.859 107.738C146.899 108.538 145.769 108.468 144.869 107.918L144.839 107.948C145.109 108.668 144.879 109.428 144.269 110.238C143.459 111.318 142.899 112.078 142.749 112.458L141.939 111.488C142.039 111.198 142.529 110.518 143.259 109.558C144.079 108.508 144.129 107.808 143.449 106.928L142.709 106.048L139.569 108.668L138.789 107.738L145.949 101.758ZM143.429 105.448L144.229 106.408C145.069 107.408 146.139 107.578 146.969 106.888C147.899 106.108 147.749 105.088 146.929 104.088C146.549 103.638 146.239 103.348 146.069 103.238L143.429 105.448Z" fill="url(#paint24_linear_4773_228613)"/>
<path d="M151.349 109.311L149.339 107.261L150.079 106.531L154.979 111.521L154.239 112.251L152.219 110.191L146.219 116.081L145.359 115.201L151.349 109.311Z" fill="url(#paint25_linear_4773_228613)"/>
<path d="M168.184 128.398C167.694 128.498 166.774 128.488 165.664 128.198C163.094 127.518 161.584 125.388 162.374 122.398C163.124 119.538 165.564 118.118 168.394 118.858C169.534 119.158 170.184 119.588 170.454 119.828L169.914 120.718C169.524 120.388 168.934 120.058 168.174 119.858C166.034 119.298 164.254 120.288 163.624 122.688C163.034 124.918 163.944 126.698 166.164 127.278C166.884 127.468 167.654 127.508 168.184 127.408V128.398Z" fill="url(#paint26_linear_4773_228613)"/>
<path d="M179.15 122.227C179.88 125.387 178.35 127.517 176 128.057C173.57 128.617 171.43 127.127 170.79 124.347C170.11 121.427 171.49 119.097 173.94 118.527C176.45 117.947 178.52 119.497 179.15 122.227ZM172.05 124.027C172.5 125.987 173.98 127.507 175.84 127.077C177.72 126.637 178.39 124.657 177.9 122.577C177.48 120.747 176.08 119.057 174.1 119.517C172.14 119.967 171.58 122.007 172.05 124.027Z" fill="url(#paint27_linear_4773_228613)"/>
<path d="M178.422 117.103L179.452 116.453L183.932 123.583L187.342 121.443L187.882 122.313L183.432 125.103L178.422 117.103Z" fill="url(#paint28_linear_4773_228613)"/>
<path d="M183.516 113.706L184.436 112.906L189.946 119.266L192.996 116.626L193.666 117.396L189.696 120.836L183.516 113.706Z" fill="url(#paint29_linear_4773_228613)"/>
<path d="M195.172 109.381L192.662 112.051L195.142 114.381L197.942 111.401L198.682 112.101L195.042 115.961L188.172 109.491L191.662 105.781L192.402 106.481L189.742 109.301L191.912 111.341L194.422 108.671L195.172 109.381Z" fill="url(#paint30_linear_4773_228613)"/>
<path d="M203.916 105.231C203.806 105.721 203.416 106.561 202.696 107.451C201.016 109.521 198.456 110.011 196.046 108.071C193.746 106.211 193.456 103.391 195.296 101.121C196.036 100.211 196.696 99.7906 197.036 99.6406L197.626 100.491C197.156 100.711 196.616 101.111 196.126 101.721C194.736 103.441 194.906 105.471 196.836 107.031C198.626 108.491 200.626 108.391 202.066 106.601C202.536 106.021 202.886 105.341 203.016 104.811L203.916 105.231Z" fill="url(#paint31_linear_4773_228613)"/>
<path d="M199.702 97.2269L198.012 99.5469L197.172 98.9369L201.292 93.2969L202.132 93.9069L200.432 96.2369L207.212 101.187L206.482 102.187L199.702 97.2269Z" fill="url(#paint32_linear_4773_228613)"/>
<path d="M211.204 95.4794L203.344 90.2694L204.084 89.1594L209.734 89.2794C211.044 89.3094 212.174 89.3994 213.224 89.5594V89.5294C212.114 88.9294 211.144 88.3194 209.914 87.4994L206.624 85.3194L207.254 84.3594L215.114 89.5694L214.434 90.5994L208.794 90.4494C207.554 90.4194 206.314 90.3494 205.194 90.1794L205.184 90.2194C206.214 90.8194 207.174 91.4194 208.474 92.2894L211.834 94.5194L211.204 95.4794Z" fill="url(#paint33_linear_4773_228613)"/>
<path d="M208.266 82.7588L210.996 78.4688L211.856 79.0187L209.786 82.2787L212.436 83.9587L214.346 80.9487L215.196 81.4887L213.286 84.4987L216.886 86.7887L216.236 87.8187L208.266 82.7588Z" fill="url(#paint34_linear_4773_228613)"/>
<path d="M213.64 76.1203L212.13 78.5603L211.25 78.0103L214.94 72.0703L215.82 72.6203L214.3 75.0703L221.44 79.5003L220.79 80.5503L213.64 76.1203Z" fill="url(#paint35_linear_4773_228613)"/>
<path d="M223.293 70.7916L225.313 73.1716L224.653 74.2516L218.273 66.6016L219.043 65.3516L228.773 67.5216L228.093 68.6316L225.033 67.9416L223.293 70.7916ZM224.093 67.6516L221.293 67.0216C220.653 66.8816 220.103 66.7116 219.563 66.5416L219.553 66.5616C219.963 66.9716 220.363 67.4016 220.763 67.8616L222.613 70.0716L224.093 67.6516Z" fill="url(#paint36_linear_4773_228613)"/>
<path d="M221.539 61.4415C221.749 60.8515 222.149 60.0615 222.589 59.3415C223.269 58.2315 223.909 57.6415 224.669 57.4115C225.279 57.2215 225.969 57.3315 226.589 57.7115C227.649 58.3615 227.949 59.4615 227.719 60.4815L227.759 60.5015C228.359 60.0115 229.159 59.9915 230.109 60.3115C231.389 60.7315 232.289 61.0215 232.699 61.0415L232.039 62.1215C231.729 62.1115 230.929 61.8715 229.789 61.4815C228.529 61.0415 227.849 61.2115 227.239 62.1415L226.639 63.1215L230.129 65.2515L229.489 66.2915L221.539 61.4415ZM225.839 62.6515L226.489 61.5915C227.169 60.4815 226.989 59.4015 226.069 58.8415C225.029 58.2015 224.119 58.6815 223.429 59.7715C223.119 60.2715 222.949 60.6615 222.899 60.8615L225.839 62.6515Z" fill="url(#paint37_linear_4773_228613)"/>
<path d="M227.273 53.8313L225.763 56.2713L224.883 55.7213L228.573 49.7812L229.453 50.3313L227.933 52.7812L235.073 57.2113L234.423 58.2612L227.273 53.8313Z" fill="url(#paint38_linear_4773_228613)"/>
<path d="M246.991 38.3816C246.921 38.8816 246.601 39.7416 245.951 40.6916C244.441 42.8816 241.921 43.5816 239.371 41.8316C236.941 40.1616 236.421 37.3716 238.081 34.9616C238.751 33.9916 239.371 33.5216 239.701 33.3516L240.351 34.1616C239.901 34.4116 239.391 34.8616 238.951 35.5116C237.701 37.3316 238.031 39.3416 240.071 40.7516C241.971 42.0616 243.951 41.8016 245.251 39.9116C245.671 39.3016 245.971 38.5916 246.051 38.0516L246.991 38.3816Z" fill="url(#paint39_linear_4773_228613)"/>
<path d="M248.837 28.2501C251.437 30.2001 251.637 32.8101 250.187 34.7401C248.697 36.7401 246.097 36.9801 243.807 35.2701C241.407 33.4701 240.957 30.8101 242.467 28.7901C244.017 26.7301 246.597 26.5801 248.837 28.2501ZM244.577 34.2101C246.187 35.4201 248.297 35.6301 249.447 34.0901C250.607 32.5401 249.837 30.6001 248.117 29.3201C246.617 28.2001 244.457 27.8101 243.237 29.4301C242.027 31.0501 242.917 32.9701 244.577 34.2101Z" fill="url(#paint40_linear_4773_228613)"/>
<path d="M246.359 23.9534L247.139 23.0234L253.589 28.4334L256.179 25.3434L256.959 26.0034L253.579 30.0234L246.359 23.9534Z" fill="url(#paint41_linear_4773_228613)"/>
<path d="M250.938 18.5909L251.777 17.7109L257.878 23.5109L260.658 20.5909L261.398 21.2909L257.778 25.1009L250.938 18.5909Z" fill="url(#paint42_linear_4773_228613)"/>
<path d="M262.96 13.9591L260.21 16.3791L262.46 18.9291L265.53 16.2291L266.21 16.9991L262.23 20.4991L256 13.4091L259.83 10.0391L260.5 10.8091L257.59 13.3691L259.56 15.6091L262.31 13.1891L262.96 13.9591Z" fill="url(#paint43_linear_4773_228613)"/>
<path d="M272.512 12.3497C272.262 12.7797 271.632 13.4597 270.672 14.0897C268.452 15.5497 265.852 15.2397 264.162 12.6497C262.542 10.1797 263.122 7.40969 265.562 5.80969C266.542 5.15969 267.302 4.96969 267.662 4.92969L267.962 5.91969C267.452 5.98969 266.812 6.20969 266.152 6.63969C264.302 7.84969 263.852 9.83969 265.212 11.9097C266.482 13.8397 268.402 14.3497 270.322 13.0897C270.942 12.6797 271.492 12.1397 271.772 11.6697L272.512 12.3497Z" fill="url(#paint44_linear_4773_228613)"/>
<path d="M272.597 3.59844L269.917 4.63844L269.547 3.66844L276.067 1.14844L276.437 2.11844L273.747 3.15844L276.777 10.9984L275.627 11.4384L272.597 3.59844Z" fill="url(#paint45_linear_4773_228613)"/>
<path d="M282.352 9.43L282.662 0L283.992 0.04L286.862 4.91C287.522 6.04 288.042 7.05 288.452 8.03L288.482 8.02C288.412 6.76 288.422 5.61 288.472 4.14L288.602 0.19L289.752 0.23L289.442 9.66L288.212 9.62L285.372 4.74C284.752 3.67 284.152 2.57 283.712 1.53L283.672 1.54C283.702 2.73 283.692 3.87 283.642 5.43L283.512 9.46L282.352 9.43Z" fill="url(#paint46_linear_4773_228613)"/>
<path d="M293.707 1.14063L298.527 2.76063L298.197 3.73063L294.537 2.50063L293.537 5.47062L296.917 6.61063L296.597 7.57063L293.207 6.43062L291.847 10.4806L290.688 10.0906L293.707 1.14063Z" fill="url(#paint47_linear_4773_228613)"/>
<path d="M302.351 5.87125L299.871 4.43125L300.391 3.53125L306.431 7.04125L305.911 7.94125L303.421 6.49125L299.201 13.7513L298.141 13.1313L302.351 5.87125Z" fill="url(#paint48_linear_4773_228613)"/>
<path d="M307.58 16.1813L304.86 17.7212L303.93 16.8713L312.64 12.0313L313.73 13.0213L309.78 22.1813L308.82 21.3112L310.07 18.4313L307.58 16.1813ZM310.51 17.5512L311.65 14.9213C311.91 14.3213 312.18 13.8113 312.44 13.3113L312.42 13.2913C311.94 13.6113 311.44 13.9313 310.92 14.2413L308.4 15.6413L310.51 17.5512Z" fill="url(#paint49_linear_4773_228613)"/>
<path d="M317.413 16.7812C317.923 17.1513 318.563 17.7612 319.133 18.3812C320.013 19.3412 320.393 20.1312 320.403 20.9212C320.413 21.5512 320.113 22.1812 319.573 22.6712C318.653 23.5112 317.513 23.4812 316.593 22.9712L316.563 23.0012C316.863 23.7112 316.663 24.4812 316.083 25.3112C315.313 26.4212 314.793 27.2012 314.653 27.5912L313.803 26.6612C313.893 26.3712 314.353 25.6712 315.053 24.6812C315.823 23.6012 315.853 22.8912 315.143 22.0512L314.373 21.2013L311.343 23.9513L310.523 23.0512L317.413 16.7812ZM315.053 20.5812L315.893 21.5012C316.773 22.4612 317.853 22.5913 318.653 21.8713C319.553 21.0512 319.353 20.0412 318.503 19.0812C318.113 18.6412 317.783 18.3712 317.613 18.2612L315.053 20.5812Z" fill="url(#paint50_linear_4773_228613)"/>
<path d="M323.173 24.8275L321.383 22.5875L322.193 21.9375L326.563 27.3875L325.753 28.0375L323.953 25.7875L317.403 31.0475L316.633 30.0875L323.173 24.8275Z" fill="url(#paint51_linear_4773_228613)"/>
<path d="M330.374 49.0384C329.944 48.7884 329.264 48.1583 328.624 47.2083C327.164 44.9883 327.464 42.3883 330.044 40.6883C332.514 39.0583 335.284 39.6284 336.894 42.0784C337.544 43.0584 337.744 43.8184 337.774 44.1784L336.784 44.4784C336.714 43.9684 336.494 43.3283 336.064 42.6683C334.844 40.8183 332.854 40.3684 330.784 41.7384C328.854 43.0084 328.344 44.9384 329.614 46.8584C330.024 47.4784 330.564 48.0283 331.034 48.2984L330.374 49.0384Z" fill="url(#paint52_linear_4773_228613)"/>
<path d="M339.119 54.4498C336.369 56.1798 333.859 55.4298 332.579 53.3998C331.249 51.2898 331.949 48.7798 334.359 47.2598C336.889 45.6598 339.549 46.1898 340.889 48.3198C342.269 50.4898 341.489 52.9498 339.119 54.4498ZM335.079 48.3398C333.369 49.4198 332.429 51.2998 333.459 52.9298C334.489 54.5598 336.579 54.5398 338.389 53.3898C339.979 52.3898 341.109 50.5098 340.029 48.7998C338.939 47.0898 336.829 47.2298 335.079 48.3398Z" fill="url(#paint53_linear_4773_228613)"/>
<path d="M343.882 53.4062L344.522 54.4463L337.362 58.8563L339.472 62.2863L338.602 62.8263L335.852 58.3563L343.882 53.4062Z" fill="url(#paint54_linear_4773_228613)"/>
<path d="M347.347 59.0781L347.977 60.1181L340.797 64.4981L342.897 67.9381L342.027 68.4681L339.297 63.9881L347.347 59.0781Z" fill="url(#paint55_linear_4773_228613)"/>
<path d="M349.044 71.4775L347.134 68.3475L344.234 70.1175L346.364 73.6075L345.494 74.1375L342.734 69.6075L350.784 64.6875L353.434 69.0375L352.564 69.5675L350.544 66.2575L347.994 67.8275L349.904 70.9575L349.044 71.4775Z" fill="url(#paint56_linear_4773_228613)"/>
<path d="M350.036 80.9633C349.606 80.7033 348.946 80.0533 348.346 79.0733C346.946 76.8133 347.326 74.2233 349.956 72.5933C352.466 71.0433 355.226 71.6933 356.766 74.1833C357.386 75.1833 357.556 75.9533 357.586 76.3133L356.586 76.5833C356.536 76.0733 356.336 75.4233 355.916 74.7533C354.756 72.8733 352.776 72.3633 350.666 73.6633C348.696 74.8733 348.136 76.7933 349.336 78.7433C349.726 79.3733 350.256 79.9333 350.716 80.2333L350.036 80.9633Z" fill="url(#paint57_linear_4773_228613)"/>
<path d="M358.803 79.7434L357.263 77.3234L358.143 76.7734L361.883 82.6734L361.003 83.2234L359.463 80.7834L352.363 85.2834L351.703 84.2434L358.803 79.7434Z" fill="url(#paint58_linear_4773_228613)"/>
<path d="M356.039 91.0612L363.869 85.7812L364.609 86.8812L362.339 92.0612C361.809 93.2612 361.289 94.2713 360.739 95.1813L360.769 95.2012C361.749 94.4012 362.689 93.7412 363.909 92.9212L367.179 90.7113L367.819 91.6613L359.989 96.9413L359.299 95.9212L361.599 90.7613C362.099 89.6313 362.639 88.5013 363.229 87.5413L363.189 87.5113C362.239 88.2313 361.319 88.8912 360.019 89.7712L356.679 92.0212L356.039 91.0612Z" fill="url(#paint59_linear_4773_228613)"/>
<path d="M368.884 93.2188L371.854 97.3387L371.024 97.9388L368.764 94.8087L366.224 96.6387L368.304 99.5387L367.484 100.129L365.404 97.2288L361.944 99.7188L361.234 98.7288L368.884 93.2188Z" fill="url(#paint60_linear_4773_228613)"/>
<path d="M373.079 100.689L371.309 98.4291L372.129 97.7891L376.439 103.289L375.619 103.929L373.839 101.659L367.229 106.839L366.469 105.869L373.079 100.689Z" fill="url(#paint61_linear_4773_228613)"/>
<path d="M375.192 111.698L372.372 113.058L371.492 112.148L380.502 107.898L381.522 108.958L376.972 117.828L376.072 116.888L377.502 114.098L375.192 111.698ZM378.022 113.268L379.332 110.718C379.632 110.138 379.932 109.648 380.232 109.168L380.212 109.148C379.712 109.438 379.192 109.728 378.652 109.988L376.042 111.218L378.022 113.268Z" fill="url(#paint62_linear_4773_228613)"/>
<path d="M384.395 111.992C384.955 112.272 385.695 112.762 386.355 113.282C387.375 114.092 387.885 114.792 388.025 115.572C388.135 116.192 387.945 116.862 387.495 117.442C386.725 118.422 385.595 118.582 384.605 118.232L384.575 118.262C384.995 118.912 384.915 119.702 384.485 120.612C383.915 121.832 383.525 122.692 383.455 123.092L382.465 122.312C382.505 122.012 382.845 121.242 383.365 120.152C383.955 118.952 383.855 118.262 383.015 117.542L382.115 116.832L379.585 120.042L378.625 119.292L384.395 111.992ZM382.685 116.122L383.665 116.892C384.685 117.702 385.775 117.652 386.445 116.802C387.195 115.842 386.835 114.882 385.835 114.072C385.375 113.712 385.005 113.492 384.825 113.412L382.685 116.122Z" fill="url(#paint63_linear_4773_228613)"/>
<path d="M391.193 117.858L388.623 116.578L389.083 115.648L395.333 118.758L394.873 119.688L392.293 118.398L388.553 125.918L387.453 125.368L391.193 117.858Z" fill="url(#paint64_linear_4773_228613)"/>
<path d="M415.241 123.191C414.951 123.601 414.271 124.221 413.261 124.771C410.921 126.031 408.361 125.501 406.891 122.781C405.491 120.181 406.301 117.471 408.881 116.081C409.921 115.521 410.691 115.391 411.051 115.391L411.261 116.401C410.751 116.421 410.091 116.591 409.401 116.961C407.451 118.011 406.831 119.951 408.001 122.131C409.091 124.161 410.971 124.841 412.991 123.751C413.641 123.401 414.241 122.901 414.551 122.461L415.241 123.191Z" fill="url(#paint65_linear_4773_228613)"/>
<path d="M420.426 113.028C422.546 115.488 422.176 118.078 420.346 119.658C418.456 121.288 415.876 120.968 414.006 118.798C412.046 116.528 412.176 113.828 414.086 112.188C416.046 110.498 418.596 110.908 420.426 113.028ZM414.976 117.928C416.296 119.458 418.296 120.108 419.756 118.858C421.216 117.598 420.886 115.538 419.486 113.918C418.266 112.498 416.236 111.648 414.706 112.978C413.176 114.288 413.626 116.358 414.976 117.928Z" fill="url(#paint66_linear_4773_228613)"/>
<path d="M418.156 108.572L418.976 107.672L425.176 113.362L427.896 110.392L428.646 111.082L425.096 114.952L418.156 108.572Z" fill="url(#paint67_linear_4773_228613)"/>
<path d="M422.391 103.802L423.161 102.852L429.711 108.142L432.251 105.002L433.041 105.642L429.741 109.732L422.391 103.802Z" fill="url(#paint68_linear_4773_228613)"/>
<path d="M433.323 97.7628L431.153 100.713L433.893 102.733L436.313 99.4428L437.133 100.053L433.983 104.323L426.383 98.7328L429.403 94.6328L430.223 95.2428L427.923 98.3628L430.323 100.133L432.493 97.1828L433.323 97.7628Z" fill="url(#paint69_linear_4773_228613)"/>
<path d="M441.563 93.0434C441.493 93.5434 441.173 94.4034 440.523 95.3534C439.023 97.5434 436.503 98.2534 433.943 96.5034C431.503 94.8334 430.983 92.0434 432.643 89.6334C433.313 88.6634 433.933 88.1934 434.253 88.0234L434.903 88.8234C434.453 89.0734 433.943 89.5234 433.503 90.1734C432.253 91.9934 432.583 94.0134 434.633 95.4134C436.543 96.7234 438.513 96.4634 439.813 94.5634C440.233 93.9534 440.533 93.2434 440.613 92.7034L441.563 93.0434Z" fill="url(#paint70_linear_4773_228613)"/>
<path d="M436.758 85.5569L435.198 87.9669L434.328 87.4069L438.138 81.5469L439.008 82.1069L437.438 84.5269L444.478 89.1069L443.808 90.1369L436.758 85.5569Z" fill="url(#paint71_linear_4773_228613)"/>
<path d="M448.143 83.3103L440.133 78.3303L440.833 77.2003L446.483 77.1503C447.793 77.1403 448.923 77.2003 449.983 77.3303V77.3003C448.853 76.7303 447.863 76.1503 446.613 75.3703L443.263 73.2903L443.873 72.3203L451.883 77.3003L451.233 78.3503L445.583 78.3703C444.343 78.3703 443.093 78.3403 441.973 78.2103L441.963 78.2503C443.013 78.8203 443.983 79.3903 445.323 80.2203L448.743 82.3503L448.143 83.3103Z" fill="url(#paint72_linear_4773_228613)"/>
<path d="M444.906 70.5666L447.556 66.2266L448.426 66.7566L446.406 70.0566L449.086 71.6966L450.946 68.6466L451.806 69.1766L449.946 72.2266L453.586 74.4566L452.946 75.4966L444.906 70.5666Z" fill="url(#paint73_linear_4773_228613)"/>
<path d="M450.276 63.7766L448.786 66.2266L447.906 65.6866L451.536 59.7266L452.416 60.2666L450.916 62.7266L458.086 67.0966L457.446 68.1466L450.276 63.7766Z" fill="url(#paint74_linear_4773_228613)"/>
<defs>
<linearGradient id="paint0_linear_4773_228613" x1="0" y1="45.7031" x2="9.34224" y2="55.5699" gradientUnits="userSpaceOnUse">
<stop stop-color="#FE8C00"/>
<stop offset="1" stop-color="#F83600"/>
</linearGradient>
<linearGradient id="paint1_linear_4773_228613" x1="4.14062" y1="39.2266" x2="13.3562" y2="48.7479" gradientUnits="userSpaceOnUse">
<stop stop-color="#FE8C00"/>
<stop offset="1" stop-color="#F83600"/>
</linearGradient>
<linearGradient id="paint2_linear_4773_228613" x1="8.32812" y1="35.1719" x2="13.9674" y2="44.6293" gradientUnits="userSpaceOnUse">
<stop stop-color="#FE8C00"/>
<stop offset="1" stop-color="#F83600"/>
</linearGradient>
<linearGradient id="paint3_linear_4773_228613" x1="12.25" y1="29.6328" x2="18.1739" y2="39.2077" gradientUnits="userSpaceOnUse">
<stop stop-color="#FE8C00"/>
<stop offset="1" stop-color="#F83600"/>
</linearGradient>
<linearGradient id="paint4_linear_4773_228613" x1="16.4062" y1="21.1328" x2="26.3113" y2="31.766" gradientUnits="userSpaceOnUse">
<stop stop-color="#FE8C00"/>
<stop offset="1" stop-color="#F83600"/>
</linearGradient>
<linearGradient id="paint5_linear_4773_228613" x1="22.5703" y1="14.75" x2="32.3716" y2="24.4818" gradientUnits="userSpaceOnUse">
<stop stop-color="#FE8C00"/>
<stop offset="1" stop-color="#F83600"/>
</linearGradient>
<linearGradient id="paint6_linear_4773_228613" x1="26.7812" y1="8.9375" x2="36.6125" y2="18.1799" gradientUnits="userSpaceOnUse">
<stop stop-color="#FE8C00"/>
<stop offset="1" stop-color="#F83600"/>
</linearGradient>
<linearGradient id="paint7_linear_4773_228613" x1="36.7109" y1="2.5" x2="48.2911" y2="13.0546" gradientUnits="userSpaceOnUse">
<stop stop-color="#FE8C00"/>
<stop offset="1" stop-color="#F83600"/>
</linearGradient>
<linearGradient id="paint8_linear_4773_228613" x1="46.7031" y1="0.25" x2="55.5145" y2="5.20695" gradientUnits="userSpaceOnUse">
<stop stop-color="#FE8C00"/>
<stop offset="1" stop-color="#F83600"/>
</linearGradient>
<linearGradient id="paint9_linear_4773_228613" x1="53.9297" y1="0.0078125" x2="63.0607" y2="6.68925" gradientUnits="userSpaceOnUse">
<stop stop-color="#FE8C00"/>
<stop offset="1" stop-color="#F83600"/>
</linearGradient>
<linearGradient id="paint10_linear_4773_228613" x1="62.8594" y1="2.89062" x2="73.0036" y2="10.6242" gradientUnits="userSpaceOnUse">
<stop stop-color="#FE8C00"/>
<stop offset="1" stop-color="#F83600"/>
</linearGradient>
<linearGradient id="paint11_linear_4773_228613" x1="70.7422" y1="6.45312" x2="81.6833" y2="15.5414" gradientUnits="userSpaceOnUse">
<stop stop-color="#FE8C00"/>
<stop offset="1" stop-color="#F83600"/>
</linearGradient>
<linearGradient id="paint12_linear_4773_228613" x1="77.9531" y1="10.7969" x2="87.6593" y2="20.2331" gradientUnits="userSpaceOnUse">
<stop stop-color="#FE8C00"/>
<stop offset="1" stop-color="#F83600"/>
</linearGradient>
<linearGradient id="paint13_linear_4773_228613" x1="90.3437" y1="27.6328" x2="99.7458" y2="37.616" gradientUnits="userSpaceOnUse">
<stop stop-color="#FE8C00"/>
<stop offset="1" stop-color="#F83600"/>
</linearGradient>
<linearGradient id="paint14_linear_4773_228613" x1="94.8437" y1="34.0391" x2="103.976" y2="43.6647" gradientUnits="userSpaceOnUse">
<stop stop-color="#FE8C00"/>
<stop offset="1" stop-color="#F83600"/>
</linearGradient>
<linearGradient id="paint15_linear_4773_228613" x1="99.0156" y1="40.9687" x2="108.511" y2="49.4998" gradientUnits="userSpaceOnUse">
<stop stop-color="#FE8C00"/>
<stop offset="1" stop-color="#F83600"/>
</linearGradient>
<linearGradient id="paint16_linear_4773_228613" x1="102.57" y1="46.6016" x2="112.009" y2="55.1936" gradientUnits="userSpaceOnUse">
<stop stop-color="#FE8C00"/>
<stop offset="1" stop-color="#F83600"/>
</linearGradient>
<linearGradient id="paint17_linear_4773_228613" x1="106.07" y1="52.2734" x2="115.47" y2="62.8941" gradientUnits="userSpaceOnUse">
<stop stop-color="#FE8C00"/>
<stop offset="1" stop-color="#F83600"/>
</linearGradient>
<linearGradient id="paint18_linear_4773_228613" x1="110.891" y1="59.3516" x2="120.036" y2="69.3585" gradientUnits="userSpaceOnUse">
<stop stop-color="#FE8C00"/>
<stop offset="1" stop-color="#F83600"/>
</linearGradient>
<linearGradient id="paint19_linear_4773_228613" x1="115.031" y1="64.5078" x2="123.3" y2="74.5151" gradientUnits="userSpaceOnUse">
<stop stop-color="#FE8C00"/>
<stop offset="1" stop-color="#F83600"/>
</linearGradient>
<linearGradient id="paint20_linear_4773_228613" x1="119.242" y1="73.7969" x2="130.229" y2="85.5221" gradientUnits="userSpaceOnUse">
<stop stop-color="#FE8C00"/>
<stop offset="1" stop-color="#F83600"/>
</linearGradient>
<linearGradient id="paint21_linear_4773_228613" x1="124.102" y1="81.4687" x2="130.286" y2="91.163" gradientUnits="userSpaceOnUse">
<stop stop-color="#FE8C00"/>
<stop offset="1" stop-color="#F83600"/>
</linearGradient>
<linearGradient id="paint22_linear_4773_228613" x1="128.773" y1="86.1016" x2="137.339" y2="96.1101" gradientUnits="userSpaceOnUse">
<stop stop-color="#FE8C00"/>
<stop offset="1" stop-color="#F83600"/>
</linearGradient>
<linearGradient id="paint23_linear_4773_228613" x1="133.023" y1="96.9687" x2="142.379" y2="107.28" gradientUnits="userSpaceOnUse">
<stop stop-color="#FE8C00"/>
<stop offset="1" stop-color="#F83600"/>
</linearGradient>
<linearGradient id="paint24_linear_4773_228613" x1="138.789" y1="101.758" x2="149.463" y2="111.705" gradientUnits="userSpaceOnUse">
<stop stop-color="#FE8C00"/>
<stop offset="1" stop-color="#F83600"/>
</linearGradient>
<linearGradient id="paint25_linear_4773_228613" x1="145.359" y1="106.531" x2="154.909" y2="116.151" gradientUnits="userSpaceOnUse">
<stop stop-color="#FE8C00"/>
<stop offset="1" stop-color="#F83600"/>
</linearGradient>
<linearGradient id="paint26_linear_4773_228613" x1="162.164" y1="118.664" x2="171.821" y2="126.841" gradientUnits="userSpaceOnUse">
<stop stop-color="#FE8C00"/>
<stop offset="1" stop-color="#F83600"/>
</linearGradient>
<linearGradient id="paint27_linear_4773_228613" x1="170.617" y1="118.406" x2="180.322" y2="127.067" gradientUnits="userSpaceOnUse">
<stop stop-color="#FE8C00"/>
<stop offset="1" stop-color="#F83600"/>
</linearGradient>
<linearGradient id="paint28_linear_4773_228613" x1="178.422" y1="116.453" x2="187.037" y2="125.875" gradientUnits="userSpaceOnUse">
<stop stop-color="#FE8C00"/>
<stop offset="1" stop-color="#F83600"/>
</linearGradient>
<linearGradient id="paint29_linear_4773_228613" x1="183.516" y1="112.906" x2="191.21" y2="122.755" gradientUnits="userSpaceOnUse">
<stop stop-color="#FE8C00"/>
<stop offset="1" stop-color="#F83600"/>
</linearGradient>
<linearGradient id="paint30_linear_4773_228613" x1="188.172" y1="105.781" x2="198.347" y2="116.286" gradientUnits="userSpaceOnUse">
<stop stop-color="#FE8C00"/>
<stop offset="1" stop-color="#F83600"/>
</linearGradient>
<linearGradient id="paint31_linear_4773_228613" x1="194.094" y1="99.6406" x2="203.745" y2="109.461" gradientUnits="userSpaceOnUse">
<stop stop-color="#FE8C00"/>
<stop offset="1" stop-color="#F83600"/>
</linearGradient>
<linearGradient id="paint32_linear_4773_228613" x1="197.172" y1="93.2969" x2="205.996" y2="103.263" gradientUnits="userSpaceOnUse">
<stop stop-color="#FE8C00"/>
<stop offset="1" stop-color="#F83600"/>
</linearGradient>
<linearGradient id="paint33_linear_4773_228613" x1="203.344" y1="84.3594" x2="214.446" y2="96.1104" gradientUnits="userSpaceOnUse">
<stop stop-color="#FE8C00"/>
<stop offset="1" stop-color="#F83600"/>
</linearGradient>
<linearGradient id="paint34_linear_4773_228613" x1="208.266" y1="78.4687" x2="217.585" y2="87.0603" gradientUnits="userSpaceOnUse">
<stop stop-color="#FE8C00"/>
<stop offset="1" stop-color="#F83600"/>
</linearGradient>
<linearGradient id="paint35_linear_4773_228613" x1="211.25" y1="72.0703" x2="219.589" y2="82.0908" gradientUnits="userSpaceOnUse">
<stop stop-color="#FE8C00"/>
<stop offset="1" stop-color="#F83600"/>
</linearGradient>
<linearGradient id="paint36_linear_4773_228613" x1="218.273" y1="65.3516" x2="227.053" y2="75.7097" gradientUnits="userSpaceOnUse">
<stop stop-color="#FE8C00"/>
<stop offset="1" stop-color="#F83600"/>
</linearGradient>
<linearGradient id="paint37_linear_4773_228613" x1="221.539" y1="57.3203" x2="230.301" y2="68.2195" gradientUnits="userSpaceOnUse">
<stop stop-color="#FE8C00"/>
<stop offset="1" stop-color="#F83600"/>
</linearGradient>
<linearGradient id="paint38_linear_4773_228613" x1="224.883" y1="49.7812" x2="233.222" y2="59.8017" gradientUnits="userSpaceOnUse">
<stop stop-color="#FE8C00"/>
<stop offset="1" stop-color="#F83600"/>
</linearGradient>
<linearGradient id="paint39_linear_4773_228613" x1="237.117" y1="33.3516" x2="246.575" y2="43.2163" gradientUnits="userSpaceOnUse">
<stop stop-color="#FE8C00"/>
<stop offset="1" stop-color="#F83600"/>
</linearGradient>
<linearGradient id="paint40_linear_4773_228613" x1="241.594" y1="27.1094" x2="250.894" y2="36.6005" gradientUnits="userSpaceOnUse">
<stop stop-color="#FE8C00"/>
<stop offset="1" stop-color="#F83600"/>
</linearGradient>
<linearGradient id="paint41_linear_4773_228613" x1="246.359" y1="23.0234" x2="252.797" y2="32.7721" gradientUnits="userSpaceOnUse">
<stop stop-color="#FE8C00"/>
<stop offset="1" stop-color="#F83600"/>
</linearGradient>
<linearGradient id="paint42_linear_4773_228613" x1="250.937" y1="17.7109" x2="257.903" y2="27.5699" gradientUnits="userSpaceOnUse">
<stop stop-color="#FE8C00"/>
<stop offset="1" stop-color="#F83600"/>
</linearGradient>
<linearGradient id="paint43_linear_4773_228613" x1="256" y1="10.0391" x2="266.457" y2="20.2461" gradientUnits="userSpaceOnUse">
<stop stop-color="#FE8C00"/>
<stop offset="1" stop-color="#F83600"/>
</linearGradient>
<linearGradient id="paint44_linear_4773_228613" x1="263.25" y1="4.92969" x2="273.249" y2="14.1628" gradientUnits="userSpaceOnUse">
<stop stop-color="#FE8C00"/>
<stop offset="1" stop-color="#F83600"/>
</linearGradient>
<linearGradient id="paint45_linear_4773_228613" x1="269.547" y1="1.14844" x2="279.228" y2="7.9504" gradientUnits="userSpaceOnUse">
<stop stop-color="#FE8C00"/>
<stop offset="1" stop-color="#F83600"/>
</linearGradient>
<linearGradient id="paint46_linear_4773_228613" x1="282.352" y1="0" x2="291.678" y2="7.14478" gradientUnits="userSpaceOnUse">
<stop stop-color="#FE8C00"/>
<stop offset="1" stop-color="#F83600"/>
</linearGradient>
<linearGradient id="paint47_linear_4773_228613" x1="290.687" y1="1.14062" x2="299.886" y2="8.86199" gradientUnits="userSpaceOnUse">
<stop stop-color="#FE8C00"/>
<stop offset="1" stop-color="#F83600"/>
</linearGradient>
<linearGradient id="paint48_linear_4773_228613" x1="298.141" y1="3.53125" x2="308.141" y2="11.6429" gradientUnits="userSpaceOnUse">
<stop stop-color="#FE8C00"/>
<stop offset="1" stop-color="#F83600"/>
</linearGradient>
<linearGradient id="paint49_linear_4773_228613" x1="303.93" y1="12.0312" x2="314.073" y2="21.8252" gradientUnits="userSpaceOnUse">
<stop stop-color="#FE8C00"/>
<stop offset="1" stop-color="#F83600"/>
</linearGradient>
<linearGradient id="paint50_linear_4773_228613" x1="310.523" y1="16.7812" x2="321.29" y2="26.6217" gradientUnits="userSpaceOnUse">
<stop stop-color="#FE8C00"/>
<stop offset="1" stop-color="#F83600"/>
</linearGradient>
<linearGradient id="paint51_linear_4773_228613" x1="316.633" y1="21.9375" x2="325.709" y2="31.8307" gradientUnits="userSpaceOnUse">
<stop stop-color="#FE8C00"/>
<stop offset="1" stop-color="#F83600"/>
</linearGradient>
<linearGradient id="paint52_linear_4773_228613" x1="327.75" y1="39.7656" x2="336.995" y2="49.7596" gradientUnits="userSpaceOnUse">
<stop stop-color="#FE8C00"/>
<stop offset="1" stop-color="#F83600"/>
</linearGradient>
<linearGradient id="paint53_linear_4773_228613" x1="331.914" y1="46.3281" x2="340.983" y2="55.9666" gradientUnits="userSpaceOnUse">
<stop stop-color="#FE8C00"/>
<stop offset="1" stop-color="#F83600"/>
</linearGradient>
<linearGradient id="paint54_linear_4773_228613" x1="335.852" y1="53.4062" x2="345.239" y2="62.0465" gradientUnits="userSpaceOnUse">
<stop stop-color="#FE8C00"/>
<stop offset="1" stop-color="#F83600"/>
</linearGradient>
<linearGradient id="paint55_linear_4773_228613" x1="339.297" y1="59.0781" x2="348.658" y2="67.7314" gradientUnits="userSpaceOnUse">
<stop stop-color="#FE8C00"/>
<stop offset="1" stop-color="#F83600"/>
</linearGradient>
<linearGradient id="paint56_linear_4773_228613" x1="342.734" y1="64.6875" x2="352.112" y2="75.3055" gradientUnits="userSpaceOnUse">
<stop stop-color="#FE8C00"/>
<stop offset="1" stop-color="#F83600"/>
</linearGradient>
<linearGradient id="paint57_linear_4773_228613" x1="347.547" y1="71.7578" x2="356.718" y2="81.7595" gradientUnits="userSpaceOnUse">
<stop stop-color="#FE8C00"/>
<stop offset="1" stop-color="#F83600"/>
</linearGradient>
<linearGradient id="paint58_linear_4773_228613" x1="351.703" y1="76.7734" x2="360.078" y2="86.7922" gradientUnits="userSpaceOnUse">
<stop stop-color="#FE8C00"/>
<stop offset="1" stop-color="#F83600"/>
</linearGradient>
<linearGradient id="paint59_linear_4773_228613" x1="356.039" y1="85.7812" x2="367.183" y2="97.5441" gradientUnits="userSpaceOnUse">
<stop stop-color="#FE8C00"/>
<stop offset="1" stop-color="#F83600"/>
</linearGradient>
<linearGradient id="paint60_linear_4773_228613" x1="361.234" y1="93.2187" x2="367.552" y2="102.928" gradientUnits="userSpaceOnUse">
<stop stop-color="#FE8C00"/>
<stop offset="1" stop-color="#F83600"/>
</linearGradient>
<linearGradient id="paint61_linear_4773_228613" x1="366.469" y1="97.7891" x2="375.476" y2="107.713" gradientUnits="userSpaceOnUse">
<stop stop-color="#FE8C00"/>
<stop offset="1" stop-color="#F83600"/>
</linearGradient>
<linearGradient id="paint62_linear_4773_228613" x1="371.492" y1="107.898" x2="381.422" y2="117.928" gradientUnits="userSpaceOnUse">
<stop stop-color="#FE8C00"/>
<stop offset="1" stop-color="#F83600"/>
</linearGradient>
<linearGradient id="paint63_linear_4773_228613" x1="378.625" y1="111.992" x2="389.579" y2="121.299" gradientUnits="userSpaceOnUse">
<stop stop-color="#FE8C00"/>
<stop offset="1" stop-color="#F83600"/>
</linearGradient>
<linearGradient id="paint64_linear_4773_228613" x1="387.453" y1="115.648" x2="397.373" y2="123.26" gradientUnits="userSpaceOnUse">
<stop stop-color="#FE8C00"/>
<stop offset="1" stop-color="#F83600"/>
</linearGradient>
<linearGradient id="paint65_linear_4773_228613" x1="406.211" y1="115.391" x2="416.185" y2="124.371" gradientUnits="userSpaceOnUse">
<stop stop-color="#FE8C00"/>
<stop offset="1" stop-color="#F83600"/>
</linearGradient>
<linearGradient id="paint66_linear_4773_228613" x1="412.594" y1="111.141" x2="422.136" y2="120.415" gradientUnits="userSpaceOnUse">
<stop stop-color="#FE8C00"/>
<stop offset="1" stop-color="#F83600"/>
</linearGradient>
<linearGradient id="paint67_linear_4773_228613" x1="418.156" y1="107.672" x2="424.976" y2="117.499" gradientUnits="userSpaceOnUse">
<stop stop-color="#FE8C00"/>
<stop offset="1" stop-color="#F83600"/>
</linearGradient>
<linearGradient id="paint68_linear_4773_228613" x1="422.391" y1="102.852" x2="428.662" y2="112.56" gradientUnits="userSpaceOnUse">
<stop stop-color="#FE8C00"/>
<stop offset="1" stop-color="#F83600"/>
</linearGradient>
<linearGradient id="paint69_linear_4773_228613" x1="426.383" y1="94.6328" x2="436.021" y2="105.325" gradientUnits="userSpaceOnUse">
<stop stop-color="#FE8C00"/>
<stop offset="1" stop-color="#F83600"/>
</linearGradient>
<linearGradient id="paint70_linear_4773_228613" x1="431.68" y1="88.0234" x2="441.134" y2="97.897" gradientUnits="userSpaceOnUse">
<stop stop-color="#FE8C00"/>
<stop offset="1" stop-color="#F83600"/>
</linearGradient>
<linearGradient id="paint71_linear_4773_228613" x1="434.328" y1="81.5469" x2="442.8" y2="91.5572" gradientUnits="userSpaceOnUse">
<stop stop-color="#FE8C00"/>
<stop offset="1" stop-color="#F83600"/>
</linearGradient>
<linearGradient id="paint72_linear_4773_228613" x1="440.133" y1="72.3203" x2="451.098" y2="84.0441" gradientUnits="userSpaceOnUse">
<stop stop-color="#FE8C00"/>
<stop offset="1" stop-color="#F83600"/>
</linearGradient>
<linearGradient id="paint73_linear_4773_228613" x1="444.906" y1="66.2266" x2="454.156" y2="74.8878" gradientUnits="userSpaceOnUse">
<stop stop-color="#FE8C00"/>
<stop offset="1" stop-color="#F83600"/>
</linearGradient>
<linearGradient id="paint74_linear_4773_228613" x1="447.906" y1="59.7266" x2="456.177" y2="69.7259" gradientUnits="userSpaceOnUse">
<stop stop-color="#FE8C00"/>
<stop offset="1" stop-color="#F83600"/>
</linearGradient>
</defs>
</svg>
