<svg width="236" height="313" viewBox="0 0 236 313" fill="none" xmlns="http://www.w3.org/2000/svg">
  
<path opacity="0.5" d="M25.3156 6C25.3156 6 -51.2309 82.0758 67.3046 121.352C67.5668 121.438 67.8364 121.52 68.1045 121.586C72.1217 122.578 105.823 130.288 104.222 109.386C104.148 108.413 103.896 107.449 103.469 106.572C100.939 101.378 90.1195 84.3199 68.7235 116.957C45.5346 152.328 53.4027 204.94 133.085 247.853C138.112 250.559 143.422 253.229 149.03 255.851C149.668 256.148 150.311 256.392 150.994 256.562C155.903 257.779 177.077 262.106 175.957 245.86C175.682 241.872 172.62 238.64 168.652 238.155C162.757 237.434 153.592 238.383 145.899 248.246C144.889 249.542 143.759 250.765 142.367 251.638C138.701 253.937 131.686 257.625 134.338 250.262C137.871 240.451 137.871 240.451 137.871 240.451" stroke="url(#paint0_linear_4773_228735)" stroke-width="1.5" stroke-miterlimit="10"/>
<path opacity="0.1" d="M31.3156 6C31.3156 6 -45.2309 82.0758 73.3046 121.352C73.5668 121.438 73.8364 121.52 74.1045 121.586C78.1217 122.578 111.823 130.288 110.222 109.386C110.148 108.413 109.896 107.449 109.469 106.572C106.939 101.378 96.1195 84.3199 74.7235 116.957C51.5346 152.328 59.4027 204.94 139.085 247.853C144.112 250.559 149.422 253.229 155.03 255.851C155.668 256.148 156.311 256.392 156.994 256.562C161.903 257.779 183.077 262.106 181.957 245.86C181.682 241.872 178.62 238.64 174.652 238.155C168.757 237.434 159.592 238.383 151.899 248.246C150.889 249.542 149.759 250.765 148.367 251.638C144.701 253.937 137.686 257.625 140.338 250.262C143.871 240.451 143.871 240.451 143.871 240.451" stroke="url(#paint1_linear_4773_228735)" stroke-width="1.5" stroke-miterlimit="10"/>
<circle cx="25" cy="6" r="5" fill="var(--color-background)" stroke="url(#paint2_linear_4773_228735)" stroke-width="2"/>
<g opacity="0.1">
<mask id="path-4-inside-1_4773_228735" fill="white">
<path fill-rule="evenodd" clip-rule="evenodd" d="M180.166 254.677L181.004 254C181.077 254.204 181.142 254.435 181.193 254.679C181.22 254.809 181.243 254.942 181.261 255.078C181.272 255.155 181.281 255.233 181.288 255.31C181.334 255.824 181.304 256.341 181.149 256.748C181.106 256.859 181.059 256.967 181.006 257.073L231.935 264.326C235.001 264.762 236.429 268.368 234.494 270.785L202.342 310.954C201.405 312.124 199.892 312.673 198.423 312.374L149.208 302.385C146.274 301.79 145.01 298.301 146.881 295.964L176.661 258.781C176.046 258.553 175.503 258.155 175.1 257.628C174.593 256.965 174.339 256.143 174.384 255.31C174.429 254.477 174.771 253.687 175.347 253.083C175.923 252.48 176.696 252.102 177.527 252.018C178.017 251.968 178.509 252.023 178.971 252.175C179.29 252.279 179.595 252.43 179.875 252.625L179.826 252.696L179.305 253.447L179.256 253.517L179.255 253.517C178.783 253.189 178.208 253.04 177.636 253.098C177.063 253.156 176.53 253.417 176.133 253.833C175.735 254.25 175.5 254.794 175.469 255.369C175.437 255.944 175.612 256.511 175.962 256.968C176.312 257.425 176.814 257.741 177.377 257.861C177.415 257.869 177.453 257.876 177.491 257.883C178.142 257.349 178.945 257.033 179.785 256.981C179.93 256.794 180.048 256.586 180.134 256.361C180.254 256.047 180.306 255.714 180.29 255.383C180.282 255.221 180.258 255.06 180.218 254.902C180.199 254.83 180.177 254.759 180.152 254.688L180.166 254.677Z"/>
</mask>
<path fill-rule="evenodd" clip-rule="evenodd" d="M180.166 254.677L181.004 254C181.077 254.204 181.142 254.435 181.193 254.679C181.22 254.809 181.243 254.942 181.261 255.078C181.272 255.155 181.281 255.233 181.288 255.31C181.334 255.824 181.304 256.341 181.149 256.748C181.106 256.859 181.059 256.967 181.006 257.073L231.935 264.326C235.001 264.762 236.429 268.368 234.494 270.785L202.342 310.954C201.405 312.124 199.892 312.673 198.423 312.374L149.208 302.385C146.274 301.79 145.01 298.301 146.881 295.964L176.661 258.781C176.046 258.553 175.503 258.155 175.1 257.628C174.593 256.965 174.339 256.143 174.384 255.31C174.429 254.477 174.771 253.687 175.347 253.083C175.923 252.48 176.696 252.102 177.527 252.018C178.017 251.968 178.509 252.023 178.971 252.175C179.29 252.279 179.595 252.43 179.875 252.625L179.826 252.696L179.305 253.447L179.256 253.517L179.255 253.517C178.783 253.189 178.208 253.04 177.636 253.098C177.063 253.156 176.53 253.417 176.133 253.833C175.735 254.25 175.5 254.794 175.469 255.369C175.437 255.944 175.612 256.511 175.962 256.968C176.312 257.425 176.814 257.741 177.377 257.861C177.415 257.869 177.453 257.876 177.491 257.883C178.142 257.349 178.945 257.033 179.785 256.981C179.93 256.794 180.048 256.586 180.134 256.361C180.254 256.047 180.306 255.714 180.29 255.383C180.282 255.221 180.258 255.06 180.218 254.902C180.199 254.83 180.177 254.759 180.152 254.688L180.166 254.677Z" fill="url(#paint3_linear_4773_228735)"/>
<path d="M181.004 254L181.946 253.664L181.472 252.337L180.376 253.222L181.004 254ZM180.166 254.677L180.794 255.455L180.794 255.455L180.166 254.677ZM181.193 254.679L180.214 254.883L180.214 254.883L181.193 254.679ZM181.261 255.078L180.27 255.212L180.27 255.212L181.261 255.078ZM181.288 255.31L180.292 255.401L180.292 255.401L181.288 255.31ZM181.149 256.748L182.083 257.105L182.083 257.105L181.149 256.748ZM181.006 257.073L180.112 256.623L179.487 257.866L180.865 258.063L181.006 257.073ZM231.935 264.326L231.794 265.316L231.935 264.326ZM234.494 270.785L233.713 270.16L233.713 270.16L234.494 270.785ZM202.342 310.954L203.122 311.579L202.342 310.954ZM198.423 312.374L198.224 313.354L198.423 312.374ZM149.208 302.385L149.407 301.405L149.208 302.385ZM146.881 295.964L147.662 296.59H147.662L146.881 295.964ZM176.661 258.781L177.442 259.406L178.307 258.326L177.009 257.844L176.661 258.781ZM175.1 257.628L174.306 258.236L174.306 258.236L175.1 257.628ZM174.384 255.31L173.386 255.256L173.386 255.256L174.384 255.31ZM175.347 253.083L174.624 252.393V252.393L175.347 253.083ZM177.527 252.018L177.627 253.013V253.013L177.527 252.018ZM178.971 252.175L178.659 253.125L178.659 253.125L178.971 252.175ZM179.875 252.625L180.697 253.195L181.267 252.374L180.446 251.804L179.875 252.625ZM179.826 252.696L180.647 253.266L180.647 253.266L179.826 252.696ZM179.305 253.447L180.126 254.017L180.126 254.017L179.305 253.447ZM179.256 253.517L178.686 254.339L179.507 254.909L180.077 254.088L179.256 253.517ZM179.255 253.517L178.685 254.338L178.685 254.339L179.255 253.517ZM177.636 253.098L177.535 252.103L177.535 252.103L177.636 253.098ZM175.469 255.369L174.47 255.315L174.47 255.315L175.469 255.369ZM175.962 256.968L175.168 257.575L175.168 257.575L175.962 256.968ZM177.377 257.861L177.169 258.839L177.169 258.839L177.377 257.861ZM177.491 257.883L177.331 258.87L177.777 258.942L178.126 258.655L177.491 257.883ZM179.785 256.981L179.846 257.98L180.297 257.952L180.574 257.595L179.785 256.981ZM180.134 256.361L181.068 256.718L181.068 256.718L180.134 256.361ZM180.29 255.383L179.291 255.431L179.291 255.431L180.29 255.383ZM180.218 254.902L181.186 254.654L181.186 254.654L180.218 254.902ZM180.152 254.688L179.524 253.91L178.972 254.356L179.21 255.024L180.152 254.688ZM180.376 253.222L179.537 253.899L180.794 255.455L181.632 254.778L180.376 253.222ZM182.171 254.474C182.112 254.189 182.035 253.914 181.946 253.664L180.062 254.336C180.119 254.494 180.171 254.681 180.214 254.883L182.171 254.474ZM182.252 254.944C182.231 254.784 182.203 254.627 182.171 254.474L180.214 254.883C180.236 254.99 180.255 255.101 180.27 255.212L182.252 254.944ZM182.283 255.22C182.275 255.127 182.265 255.035 182.252 254.944L180.27 255.212C180.279 255.275 180.286 255.338 180.292 255.401L182.283 255.22ZM182.083 257.105C182.315 256.498 182.337 255.808 182.283 255.22L180.292 255.401C180.332 255.839 180.294 256.185 180.214 256.392L182.083 257.105ZM181.899 257.522C181.967 257.387 182.029 257.248 182.083 257.105L180.214 256.392C180.184 256.471 180.15 256.548 180.112 256.623L181.899 257.522ZM180.865 258.063L231.794 265.316L232.076 263.336L181.147 256.083L180.865 258.063ZM231.794 265.316C234.093 265.643 235.164 268.347 233.713 270.16L235.274 271.41C237.693 268.388 235.908 263.882 232.076 263.336L231.794 265.316ZM233.713 270.16L201.561 310.329L203.122 311.579L235.274 271.41L233.713 270.16ZM201.561 310.329C200.858 311.207 199.724 311.618 198.622 311.394L198.224 313.354C200.061 313.727 201.951 313.042 203.122 311.579L201.561 310.329ZM198.622 311.394L149.407 301.405L149.009 303.365L198.224 313.354L198.622 311.394ZM149.407 301.405C147.206 300.958 146.258 298.342 147.662 296.59L146.101 295.339C143.762 298.26 145.342 302.621 149.009 303.365L149.407 301.405ZM147.662 296.59L177.442 259.406L175.881 258.156L146.101 295.339L147.662 296.59ZM174.306 258.236C174.825 258.913 175.522 259.425 176.313 259.719L177.009 257.844C176.569 257.681 176.182 257.396 175.894 257.02L174.306 258.236ZM173.386 255.256C173.327 256.327 173.654 257.384 174.306 258.236L175.894 257.02C175.532 256.547 175.35 255.959 175.383 255.364L173.386 255.256ZM174.624 252.393C173.883 253.169 173.444 254.184 173.386 255.256L175.383 255.364C175.415 254.769 175.659 254.205 176.071 253.774L174.624 252.393ZM177.426 251.023C176.358 251.131 175.365 251.617 174.624 252.393L176.071 253.774C176.482 253.343 177.034 253.073 177.627 253.013L177.426 251.023ZM179.282 251.224C178.689 251.03 178.057 250.959 177.426 251.023L177.627 253.013C177.978 252.977 178.329 253.016 178.659 253.125L179.282 251.224ZM180.446 251.804C180.085 251.553 179.693 251.359 179.282 251.224L178.659 253.125C178.887 253.2 179.105 253.307 179.305 253.447L180.446 251.804ZM180.647 253.266L180.697 253.195L179.054 252.055L179.005 252.125L180.647 253.266ZM180.126 254.017L180.647 253.266L179.005 252.125L178.483 252.876L180.126 254.017ZM180.077 254.088L180.126 254.017L178.483 252.876L178.434 252.947L180.077 254.088ZM178.685 254.339L178.686 254.339L179.826 252.696L179.825 252.695L178.685 254.339ZM177.737 254.093C178.072 254.059 178.408 254.146 178.685 254.338L179.826 252.696C179.157 252.231 178.345 252.021 177.535 252.103L177.737 254.093ZM176.856 254.524C177.089 254.28 177.401 254.127 177.737 254.093L177.535 252.103C176.725 252.185 175.971 252.554 175.409 253.143L176.856 254.524ZM176.467 255.423C176.485 255.087 176.623 254.768 176.856 254.524L175.409 253.143C174.847 253.732 174.514 254.502 174.47 255.315L176.467 255.423ZM176.756 256.36C176.551 256.092 176.449 255.76 176.467 255.423L174.47 255.315C174.426 256.127 174.673 256.929 175.168 257.575L176.756 256.36ZM177.585 256.883C177.255 256.813 176.961 256.627 176.756 256.36L175.168 257.575C175.663 258.222 176.373 258.67 177.169 258.839L177.585 256.883ZM177.652 256.896C177.63 256.892 177.607 256.888 177.585 256.883L177.169 258.839C177.223 258.851 177.277 258.861 177.331 258.87L177.652 256.896ZM178.126 258.655C178.614 258.255 179.216 258.018 179.846 257.98L179.724 255.983C178.673 256.048 177.669 256.442 176.857 257.11L178.126 258.655ZM179.2 256.004C179.15 256.136 179.08 256.258 178.995 256.368L180.574 257.595C180.78 257.331 180.947 257.035 181.068 256.718L179.2 256.004ZM179.291 255.431C179.301 255.625 179.27 255.82 179.2 256.004L181.068 256.718C181.238 256.273 181.312 255.802 181.289 255.334L179.291 255.431ZM179.249 255.15C179.272 255.242 179.287 255.337 179.291 255.431L181.289 255.334C181.278 255.106 181.244 254.878 181.186 254.654L179.249 255.15ZM179.21 255.024C179.225 255.066 179.238 255.108 179.249 255.15L181.186 254.654C181.16 254.552 181.13 254.451 181.094 254.352L179.21 255.024ZM179.537 253.899L179.524 253.91L180.781 255.466L180.794 255.455L179.537 253.899Z" fill="url(#paint4_linear_4773_228735)" mask="url(#path-4-inside-1_4773_228735)"/>
</g>
<path d="M166.663 299.849L166.911 300.282L167.345 300.034L169.856 298.594L170.29 298.345L170.041 297.911L166.232 291.267L175.997 294.867L176.216 294.948L176.418 294.832L179.01 293.345L179.444 293.097L179.196 292.663L172.482 280.954L172.233 280.52L171.799 280.768L169.256 282.227L168.822 282.476L169.071 282.909L172.861 289.521L163.148 285.935L162.929 285.854L162.726 285.971L160.134 287.457L159.7 287.706L159.949 288.139L166.663 299.849ZM180.176 292.101L180.424 292.535L180.858 292.286L183.402 290.828L183.835 290.579L183.587 290.145L181.206 285.993L187.399 282.442L187.833 282.193L187.584 281.76L186.129 279.223L185.881 278.789L185.447 279.038L179.254 282.588L178.576 281.407L186.373 276.936L186.416 276.912L186.807 276.688L186.85 276.663L190.985 274.292L195.995 283.031L196.244 283.464L196.678 283.216L199.205 281.767L199.639 281.518L199.39 281.084L194.38 272.346L198.515 269.975L198.949 269.726L198.7 269.292L197.246 266.755L196.997 266.321L196.563 266.57L184.898 273.258L184.855 273.283L184.464 273.507L184.421 273.532L173.647 279.709L173.213 279.958L173.462 280.392L180.176 292.101Z" fill="var(--color-background)" stroke="url(#paint5_linear_4773_228735)"/>
<mask id="path-7-inside-2_4773_228735" fill="white">
<path fill-rule="evenodd" clip-rule="evenodd" d="M174.166 254.677L175.004 254C175.077 254.204 175.142 254.435 175.193 254.679C175.22 254.809 175.243 254.942 175.261 255.078C175.272 255.155 175.281 255.233 175.288 255.31C175.334 255.824 175.304 256.341 175.149 256.748C175.106 256.859 175.059 256.967 175.006 257.073L225.935 264.326C229.001 264.762 230.429 268.368 228.494 270.785L196.342 310.954C195.405 312.124 193.892 312.673 192.423 312.374L143.208 302.385C140.274 301.79 139.01 298.301 140.881 295.964L170.661 258.781C170.046 258.553 169.503 258.155 169.1 257.628C168.593 256.965 168.339 256.143 168.384 255.31C168.429 254.477 168.771 253.687 169.347 253.083C169.923 252.48 170.696 252.102 171.527 252.018C172.017 251.968 172.509 252.023 172.971 252.175C173.29 252.279 173.595 252.43 173.875 252.625L173.826 252.696L173.305 253.447L173.256 253.517L173.255 253.517C172.783 253.189 172.208 253.04 171.636 253.098C171.063 253.156 170.53 253.417 170.133 253.833C169.735 254.25 169.5 254.794 169.469 255.369C169.437 255.944 169.612 256.511 169.962 256.968C170.312 257.425 170.814 257.741 171.377 257.861C171.415 257.869 171.453 257.876 171.491 257.883C172.142 257.349 172.945 257.033 173.785 256.981C173.93 256.794 174.048 256.586 174.134 256.361C174.254 256.047 174.306 255.714 174.29 255.383C174.282 255.221 174.258 255.06 174.218 254.902C174.199 254.83 174.177 254.759 174.152 254.688L174.166 254.677Z"/>
</mask>
<path fill-rule="evenodd" clip-rule="evenodd" d="M174.166 254.677L175.004 254C175.077 254.204 175.142 254.435 175.193 254.679C175.22 254.809 175.243 254.942 175.261 255.078C175.272 255.155 175.281 255.233 175.288 255.31C175.334 255.824 175.304 256.341 175.149 256.748C175.106 256.859 175.059 256.967 175.006 257.073L225.935 264.326C229.001 264.762 230.429 268.368 228.494 270.785L196.342 310.954C195.405 312.124 193.892 312.673 192.423 312.374L143.208 302.385C140.274 301.79 139.01 298.301 140.881 295.964L170.661 258.781C170.046 258.553 169.503 258.155 169.1 257.628C168.593 256.965 168.339 256.143 168.384 255.31C168.429 254.477 168.771 253.687 169.347 253.083C169.923 252.48 170.696 252.102 171.527 252.018C172.017 251.968 172.509 252.023 172.971 252.175C173.29 252.279 173.595 252.43 173.875 252.625L173.826 252.696L173.305 253.447L173.256 253.517L173.255 253.517C172.783 253.189 172.208 253.04 171.636 253.098C171.063 253.156 170.53 253.417 170.133 253.833C169.735 254.25 169.5 254.794 169.469 255.369C169.437 255.944 169.612 256.511 169.962 256.968C170.312 257.425 170.814 257.741 171.377 257.861C171.415 257.869 171.453 257.876 171.491 257.883C172.142 257.349 172.945 257.033 173.785 256.981C173.93 256.794 174.048 256.586 174.134 256.361C174.254 256.047 174.306 255.714 174.29 255.383C174.282 255.221 174.258 255.06 174.218 254.902C174.199 254.83 174.177 254.759 174.152 254.688L174.166 254.677Z" fill="url(#paint6_linear_4773_228735)"/>
<path d="M175.004 254L175.946 253.664L175.472 252.337L174.376 253.222L175.004 254ZM174.166 254.677L174.794 255.455L174.794 255.455L174.166 254.677ZM175.193 254.679L174.214 254.883L174.214 254.883L175.193 254.679ZM175.261 255.078L174.27 255.212L174.27 255.212L175.261 255.078ZM175.288 255.31L174.292 255.401L174.292 255.401L175.288 255.31ZM175.149 256.748L176.083 257.105L176.083 257.105L175.149 256.748ZM175.006 257.073L174.112 256.623L173.487 257.866L174.865 258.063L175.006 257.073ZM225.935 264.326L225.794 265.316L225.935 264.326ZM228.494 270.785L227.713 270.16L227.713 270.16L228.494 270.785ZM196.342 310.954L197.122 311.579L196.342 310.954ZM192.423 312.374L192.224 313.354L192.423 312.374ZM143.208 302.385L143.407 301.405L143.208 302.385ZM140.881 295.964L141.662 296.59H141.662L140.881 295.964ZM170.661 258.781L171.442 259.406L172.307 258.326L171.009 257.844L170.661 258.781ZM169.1 257.628L168.306 258.236L168.306 258.236L169.1 257.628ZM168.384 255.31L167.386 255.256L167.386 255.256L168.384 255.31ZM169.347 253.083L168.624 252.393V252.393L169.347 253.083ZM171.527 252.018L171.627 253.013V253.013L171.527 252.018ZM172.971 252.175L172.659 253.125L172.659 253.125L172.971 252.175ZM173.875 252.625L174.697 253.195L175.267 252.374L174.446 251.804L173.875 252.625ZM173.826 252.696L174.647 253.266L174.647 253.266L173.826 252.696ZM173.305 253.447L174.126 254.017L174.126 254.017L173.305 253.447ZM173.256 253.517L172.686 254.339L173.507 254.909L174.077 254.088L173.256 253.517ZM173.255 253.517L172.685 254.338L172.685 254.339L173.255 253.517ZM171.636 253.098L171.535 252.103L171.535 252.103L171.636 253.098ZM169.469 255.369L168.47 255.315L168.47 255.315L169.469 255.369ZM169.962 256.968L169.168 257.575L169.168 257.575L169.962 256.968ZM171.377 257.861L171.169 258.839L171.169 258.839L171.377 257.861ZM171.491 257.883L171.331 258.87L171.777 258.942L172.126 258.655L171.491 257.883ZM173.785 256.981L173.846 257.98L174.297 257.952L174.574 257.595L173.785 256.981ZM174.134 256.361L175.068 256.718L175.068 256.718L174.134 256.361ZM174.29 255.383L173.291 255.431L173.291 255.431L174.29 255.383ZM174.218 254.902L175.186 254.654L175.186 254.654L174.218 254.902ZM174.152 254.688L173.524 253.91L172.972 254.356L173.21 255.024L174.152 254.688ZM174.376 253.222L173.537 253.899L174.794 255.455L175.632 254.778L174.376 253.222ZM176.171 254.474C176.112 254.189 176.035 253.914 175.946 253.664L174.062 254.336C174.119 254.494 174.171 254.681 174.214 254.883L176.171 254.474ZM176.252 254.944C176.231 254.784 176.203 254.627 176.171 254.474L174.214 254.883C174.236 254.99 174.255 255.101 174.27 255.212L176.252 254.944ZM176.283 255.22C176.275 255.127 176.265 255.035 176.252 254.944L174.27 255.212C174.279 255.275 174.286 255.338 174.292 255.401L176.283 255.22ZM176.083 257.105C176.315 256.498 176.337 255.808 176.283 255.22L174.292 255.401C174.332 255.839 174.294 256.185 174.214 256.392L176.083 257.105ZM175.899 257.522C175.967 257.387 176.029 257.248 176.083 257.105L174.214 256.392C174.184 256.471 174.15 256.548 174.112 256.623L175.899 257.522ZM174.865 258.063L225.794 265.316L226.076 263.336L175.147 256.083L174.865 258.063ZM225.794 265.316C228.093 265.643 229.164 268.347 227.713 270.16L229.274 271.41C231.693 268.388 229.908 263.882 226.076 263.336L225.794 265.316ZM227.713 270.16L195.561 310.329L197.122 311.579L229.274 271.41L227.713 270.16ZM195.561 310.329C194.858 311.207 193.724 311.618 192.622 311.394L192.224 313.354C194.061 313.727 195.951 313.042 197.122 311.579L195.561 310.329ZM192.622 311.394L143.407 301.405L143.009 303.365L192.224 313.354L192.622 311.394ZM143.407 301.405C141.206 300.958 140.258 298.342 141.662 296.59L140.101 295.339C137.762 298.26 139.342 302.621 143.009 303.365L143.407 301.405ZM141.662 296.59L171.442 259.406L169.881 258.156L140.101 295.339L141.662 296.59ZM168.306 258.236C168.825 258.913 169.522 259.425 170.313 259.719L171.009 257.844C170.569 257.681 170.182 257.396 169.894 257.02L168.306 258.236ZM167.386 255.256C167.327 256.327 167.654 257.384 168.306 258.236L169.894 257.02C169.532 256.547 169.35 255.959 169.383 255.364L167.386 255.256ZM168.624 252.393C167.883 253.169 167.444 254.184 167.386 255.256L169.383 255.364C169.415 254.769 169.659 254.205 170.071 253.774L168.624 252.393ZM171.426 251.023C170.358 251.131 169.365 251.617 168.624 252.393L170.071 253.774C170.482 253.343 171.034 253.073 171.627 253.013L171.426 251.023ZM173.282 251.224C172.689 251.03 172.057 250.959 171.426 251.023L171.627 253.013C171.978 252.977 172.329 253.016 172.659 253.125L173.282 251.224ZM174.446 251.804C174.085 251.553 173.693 251.359 173.282 251.224L172.659 253.125C172.887 253.2 173.105 253.307 173.305 253.447L174.446 251.804ZM174.647 253.266L174.697 253.195L173.054 252.055L173.005 252.125L174.647 253.266ZM174.126 254.017L174.647 253.266L173.005 252.125L172.483 252.876L174.126 254.017ZM174.077 254.088L174.126 254.017L172.483 252.876L172.434 252.947L174.077 254.088ZM172.685 254.339L172.686 254.339L173.826 252.696L173.825 252.695L172.685 254.339ZM171.737 254.093C172.072 254.059 172.408 254.146 172.685 254.338L173.826 252.696C173.157 252.231 172.345 252.021 171.535 252.103L171.737 254.093ZM170.856 254.524C171.089 254.28 171.401 254.127 171.737 254.093L171.535 252.103C170.725 252.185 169.971 252.554 169.409 253.143L170.856 254.524ZM170.467 255.423C170.485 255.087 170.623 254.768 170.856 254.524L169.409 253.143C168.847 253.732 168.514 254.502 168.47 255.315L170.467 255.423ZM170.756 256.36C170.551 256.092 170.449 255.76 170.467 255.423L168.47 255.315C168.426 256.127 168.673 256.929 169.168 257.575L170.756 256.36ZM171.585 256.883C171.255 256.813 170.961 256.627 170.756 256.36L169.168 257.575C169.663 258.222 170.373 258.67 171.169 258.839L171.585 256.883ZM171.652 256.896C171.63 256.892 171.607 256.888 171.585 256.883L171.169 258.839C171.223 258.851 171.277 258.861 171.331 258.87L171.652 256.896ZM172.126 258.655C172.614 258.255 173.216 258.018 173.846 257.98L173.724 255.983C172.673 256.048 171.669 256.442 170.857 257.11L172.126 258.655ZM173.2 256.004C173.15 256.136 173.08 256.258 172.995 256.368L174.574 257.595C174.78 257.331 174.947 257.035 175.068 256.718L173.2 256.004ZM173.291 255.431C173.301 255.625 173.27 255.82 173.2 256.004L175.068 256.718C175.238 256.273 175.312 255.802 175.289 255.334L173.291 255.431ZM173.249 255.15C173.272 255.242 173.287 255.337 173.291 255.431L175.289 255.334C175.278 255.106 175.244 254.878 175.186 254.654L173.249 255.15ZM173.21 255.024C173.225 255.066 173.238 255.108 173.249 255.15L175.186 254.654C175.16 254.552 175.13 254.451 175.094 254.352L173.21 255.024ZM173.537 253.899L173.524 253.91L174.781 255.466L174.794 255.455L173.537 253.899Z" fill="url(#paint7_linear_4773_228735)" mask="url(#path-7-inside-2_4773_228735)"/>
<path class="my-path" d="M166.276 300.509L166.501 300.956L166.947 300.731L169.532 299.428L169.979 299.203L169.754 298.757L166.307 291.916L175.864 296.037L176.078 296.13L176.287 296.024L178.956 294.68L179.402 294.455L179.177 294.008L173.103 281.955L172.878 281.508L172.432 281.733L169.813 283.052L169.367 283.277L169.592 283.724L173.021 290.53L163.515 286.427L163.301 286.334L163.092 286.439L160.423 287.784L159.977 288.009L160.202 288.455L166.276 300.509ZM180.186 293.5L180.411 293.946L180.857 293.721L183.476 292.402L183.922 292.177L183.697 291.731L181.544 287.456L187.918 284.244L188.365 284.019L188.14 283.572L186.824 280.961L186.599 280.514L186.152 280.739L179.778 283.951L179.165 282.735L187.191 278.691L187.235 278.668L187.637 278.466L187.681 278.443L191.938 276.299L196.471 285.294L196.696 285.741L197.142 285.516L199.744 284.205L200.191 283.98L199.966 283.533L195.433 274.538L199.69 272.393L200.136 272.168L199.911 271.721L198.595 269.109L198.37 268.663L197.924 268.888L185.915 274.939L185.871 274.961L185.469 275.164L185.425 275.186L174.334 280.775L173.887 281L174.112 281.446L180.186 293.5Z" fill="#FFFEFE" stroke="url(#paint8_linear_4773_228735)"/>
<defs>
<linearGradient id="paint0_linear_4773_228735" x1="1" y1="6" x2="237.127" y2="169.977" gradientUnits="userSpaceOnUse">
<stop stop-color="#FE8C00"/>
<stop offset="1" stop-color="#F83600"/>
</linearGradient>
<linearGradient id="paint1_linear_4773_228735" x1="7" y1="6" x2="243.127" y2="169.977" gradientUnits="userSpaceOnUse">
<stop stop-color="#FE8C00"/>
<stop offset="1" stop-color="#F83600"/>
</linearGradient>
<linearGradient id="paint2_linear_4773_228735" x1="21" y1="2" x2="29" y2="10" gradientUnits="userSpaceOnUse">
<stop stop-color="#FE8C00"/>
<stop offset="1" stop-color="#F83600"/>
</linearGradient>
<linearGradient id="paint3_linear_4773_228735" x1="146" y1="252" x2="202.112" y2="334.954" gradientUnits="userSpaceOnUse">
<stop stop-color="#FE8C00"/>
<stop offset="1" stop-color="#F83600"/>
</linearGradient>
<linearGradient id="paint4_linear_4773_228735" x1="146" y1="252" x2="202.112" y2="334.954" gradientUnits="userSpaceOnUse">
<stop stop-color="#FE8C00"/>
<stop offset="1" stop-color="#F83600"/>
</linearGradient>
<linearGradient id="paint5_linear_4773_228735" x1="160.383" y1="287.891" x2="179.375" y2="305.205" gradientUnits="userSpaceOnUse">
<stop stop-color="#FE8C00"/>
<stop offset="1" stop-color="#F83600"/>
</linearGradient>
<linearGradient id="paint6_linear_4773_228735" x1="140" y1="252" x2="196.112" y2="334.954" gradientUnits="userSpaceOnUse">
<stop stop-color="#FE8C00"/>
<stop offset="1" stop-color="#F83600"/>
</linearGradient>
<linearGradient id="paint7_linear_4773_228735" x1="140" y1="252" x2="196.112" y2="334.954" gradientUnits="userSpaceOnUse">
<stop stop-color="#FE8C00"/>
<stop offset="1" stop-color="#F83600"/>
</linearGradient>
<linearGradient id="paint8_linear_4773_228735" x1="160.648" y1="288.23" x2="178.682" y2="306.542" gradientUnits="userSpaceOnUse">
<stop stop-color="#FE8C00"/>
<stop offset="1" stop-color="#F83600"/>
</linearGradient>
</defs>
</svg>
