<svg width="24" height="18" viewBox="0 0 24 18" fill="none" xmlns="http://www.w3.org/2000/svg">
<path d="M21.1875 0.1875H2.8125C1.26169 0.1875 0 1.44919 0 3V15C0 16.5508 1.26169 17.8125 2.8125 17.8125H21.1875C22.7383 17.8125 24 16.5508 24 15V3C24 1.44919 22.7383 0.1875 21.1875 0.1875ZM21.0166 2.0625L12 8.76909L2.98341 2.0625H21.0166ZM21.1875 15.9375H2.8125C2.29556 15.9375 1.875 15.5169 1.875 15V3.57483L12 11.1059L22.125 3.57483V15C22.125 15.5169 21.7044 15.9375 21.1875 15.9375Z" fill="url(#paint0_linear_4773_231213)"/>
<defs>
<linearGradient id="paint0_linear_4773_231213" x1="0" y1="0.1875" x2="16.8171" y2="23.0874" gradientUnits="userSpaceOnUse">
<stop stop-color="#FE8C00"/>
<stop offset="1" stop-color="#F83600"/>
</linearGradient>
</defs>
</svg>
