<svg width="24" height="24" viewBox="0 0 24 24" fill="none" xmlns="http://www.w3.org/2000/svg">
<path d="M12.0015 14.0704C9.54467 14.0704 7.54588 12.0716 7.54588 9.61481C7.54588 7.158 9.54467 5.1592 12.0015 5.1592C14.4583 5.1592 16.4571 7.158 16.4571 9.61481C16.4571 12.0716 14.4583 14.0704 12.0015 14.0704ZM12.0015 7.03519C10.5791 7.03519 9.42191 8.19239 9.42191 9.61477C9.42191 11.0371 10.5791 12.1943 12.0015 12.1943C13.4239 12.1943 14.5811 11.0371 14.5811 9.61477C14.5811 8.19239 13.4239 7.03519 12.0015 7.03519ZM12.0015 24L11.412 23.5237C11.3209 23.45 9.15369 21.6905 6.95581 19.1671C3.92398 15.6863 2.38672 12.5618 2.38672 9.88059V9.61481C2.38672 4.3132 6.69988 0 12.0015 0C17.3031 0 21.6162 4.3132 21.6162 9.61477V9.88055C21.6162 12.5618 20.079 15.6863 17.0472 19.1671C14.8493 21.6905 12.6822 23.45 12.591 23.5237L12.0015 24ZM12.0015 1.87608C7.73436 1.87608 4.26275 5.34769 4.26275 9.61481V9.88059C4.26275 14.4114 10.1006 19.8963 12.0015 21.5619C13.9019 19.8968 19.7402 14.4118 19.7402 9.88059V9.61481C19.7402 5.34764 16.2686 1.87608 12.0015 1.87608Z" fill="url(#paint0_linear_4773_231216)"/>
<defs>
<linearGradient id="paint0_linear_4773_231216" x1="2.38672" y1="0" x2="25.8092" y2="18.7668" gradientUnits="userSpaceOnUse">
<stop stop-color="#FE8C00"/>
<stop offset="1" stop-color="#F83600"/>
</linearGradient>
</defs>
</svg>
