<svg width="24" height="24" viewBox="0 0 24 24" fill="none" xmlns="http://www.w3.org/2000/svg">
<path d="M18.0572 23.9976C17.4744 23.9976 16.8877 23.8687 16.3411 23.6032C14.0345 22.4828 10.5531 20.4156 7.06754 16.9301C3.58191 13.4444 1.51473 9.96311 0.394415 7.65644C-0.339741 6.14481 -0.0299912 4.32611 1.16527 3.13084L4.31302 0.00390625L10.7023 6.43145L8.17201 8.99439C8.60298 9.75466 9.53391 11.2077 11.1028 12.7766C12.6714 14.3453 14.114 15.2658 14.8671 15.69L17.4813 13.1587L24 19.6882L20.8667 22.8323C20.1037 23.5954 19.0864 23.9976 18.0572 23.9976ZM4.30468 2.653L2.48785 4.45778C1.85902 5.08661 1.69412 6.04403 2.07967 6.83786C3.13721 9.01525 5.09082 12.3038 8.39237 15.6053C11.6938 18.9068 14.9823 20.8604 17.1598 21.918C17.9532 22.3033 18.9102 22.1387 19.5413 21.5083L21.3539 19.6894L17.4591 15.7881L15.2341 17.9426L14.6577 17.6893C14.5636 17.6479 12.3234 16.6469 9.77799 14.1015C7.23423 11.5578 6.21198 9.29852 6.16965 9.20355L5.90949 8.61939L8.06499 6.436L4.30468 2.653Z" fill="url(#paint0_linear_4773_231221)"/>
<defs>
<linearGradient id="paint0_linear_4773_231221" x1="0" y1="0.00390625" x2="23.9937" y2="24.0039" gradientUnits="userSpaceOnUse">
<stop stop-color="#FE8C00"/>
<stop offset="1" stop-color="#F83600"/>
</linearGradient>
</defs>
</svg>
