<svg width="183" height="50" viewBox="0 0 183 50" fill="none" xmlns="http://www.w3.org/2000/svg">
<g clip-path="url(#clip0_4773_226557)">
<path d="M34.216 24.7224L48.4253 38.9317H43.3974C42.5503 38.9317 41.7032 38.5764 41.102 37.9753L27.9038 24.7224L41.1567 11.4422C41.7579 10.841 42.5776 10.4858 43.452 10.5131H48.4253L34.216 24.7224ZM8.17483 11.4422C7.57367 10.841 6.7539 10.4858 5.87948 10.5131H0.878906L15.0881 24.7224L0.878906 38.9317H5.90681C6.7539 38.9317 7.60099 38.5764 8.20215 37.9753L21.4277 24.6951L8.17483 11.4422ZM24.6521 27.9741L11.3719 41.227C10.7707 41.8282 10.4428 42.6479 10.4428 43.5224V48.5229L24.6521 34.3137L38.8614 48.5229V43.495C38.8614 42.6479 38.5334 41.8009 37.9323 41.1997L24.6521 27.9741ZM24.6521 21.4707L37.9323 8.21779C38.5334 7.61663 38.8614 6.79686 38.8614 5.92245V0.921875L24.6521 15.1311L10.4428 0.921875V5.92245C10.4428 6.76954 10.7707 7.61663 11.3719 8.21779L24.6521 21.4707Z" fill="url(#paint0_linear_4773_226557)"/>
<path fill-rule="evenodd" clip-rule="evenodd" d="M154.698 7.82398V37.035C154.671 37.4995 154.862 37.9641 155.19 38.3193C155.518 38.6745 155.983 38.8658 156.447 38.8658H156.966C157.458 38.8658 157.923 38.6745 158.251 38.3193C158.578 37.9641 158.77 37.4995 158.77 37.035V7.82398H162.158V37.8001C162.158 40.0682 160.355 41.899 158.087 41.9536H155.491C154.37 41.9536 153.305 41.5437 152.512 40.7513C151.72 39.9588 151.283 38.9205 151.283 37.8001V7.82398H154.698ZM178.799 7.49607C181.067 7.55072 182.898 9.68212 182.898 11.9775V14.6827C182.898 15.0653 182.652 15.3932 182.27 15.5025L179.455 16.2949V12.4147C179.455 11.431 178.635 10.6112 177.652 10.6112C176.668 10.6112 175.848 11.4037 175.848 12.4147V15.6391C175.848 17.6339 177.324 20.1752 177.324 20.1752L181.368 27.9629C183.008 31.0507 182.871 33.3187 182.871 33.3187V37.6362C182.871 38.7565 182.434 39.8495 181.641 40.6693C180.849 41.4891 179.756 41.9263 178.608 41.9536H176.477C174.181 41.817 172.378 39.9315 172.378 37.6362V32.7996C172.378 32.417 172.624 32.0891 173.006 31.9798L175.821 31.1874V37.0897C175.821 38.0734 176.641 38.8658 177.652 38.8658C178.635 38.8658 179.455 38.0461 179.428 37.035V33.1821C179.428 31.2147 177.952 28.5914 177.952 28.5914L173.963 20.8036C172.323 17.7159 172.46 15.4478 172.46 15.4478V11.9775C172.46 9.62747 174.345 7.49607 176.723 7.49607H178.799ZM114.83 7.49607C117.126 7.60538 118.929 9.51816 118.929 11.8135V37.7455C118.902 40.0135 117.098 41.8716 114.83 41.9809H112.234C109.912 41.9536 108.026 40.0681 107.999 37.7455V11.7862C107.999 10.6659 108.436 9.57281 109.229 8.75305C110.021 7.93328 111.114 7.49607 112.262 7.46875L114.83 7.49607ZM75.8915 7.82398L75.0717 10.6659C74.9624 11.0484 74.6345 11.2944 74.252 11.2944H68.8142V22.1699H74.4433L73.6235 25.0118C73.5142 25.367 73.1863 25.6403 72.8037 25.6403H68.8142V38.1827H75.8915L75.0991 40.9972C74.9898 41.3798 74.6619 41.6257 74.2793 41.6257H65.4258V7.82398H75.8915ZM136.308 7.82398C138.658 7.85131 140.516 9.73677 140.516 12.0595V37.3629C140.516 39.6856 138.631 41.5984 136.308 41.5984H129.75V7.82398H136.308ZM91.6583 18.6996L94.7735 7.82398H98.2438L93.4072 24.7385L98.2711 41.653H94.8008L91.6583 30.7501L88.5432 41.6257H85.0729L89.9095 24.7385L85.0456 7.82398H88.5159L91.6583 18.6996ZM113.683 38.9205C114.174 38.9205 114.639 38.7019 114.967 38.3466C115.295 37.9914 115.486 37.5269 115.459 37.035V12.4147C115.486 11.9228 115.295 11.4583 114.967 11.1031C114.639 10.7479 114.174 10.5566 113.683 10.5292H113.163C112.152 10.5839 111.36 11.4037 111.36 12.4147V37.035C111.36 38.0461 112.152 38.8658 113.163 38.9205H113.683ZM135.352 38.21C136.308 38.21 137.155 37.7182 137.155 36.4065V13.0432C137.155 11.7862 136.308 11.2944 135.352 11.2944H133.138V38.21H135.352Z" fill="#222222"/>
</g>
<defs>
<linearGradient id="paint0_linear_4773_226557" x1="0.863052" y1="24.7173" x2="30.9262" y2="24.7173" gradientUnits="userSpaceOnUse">
<stop stop-color="#00BFFF"/>
<stop offset="1" stop-color="#6619FF"/>
</linearGradient>
<clipPath id="clip0_4773_226557">
<rect width="183" height="49" fill="white" transform="translate(0 0.5)"/>
</clipPath>
</defs>
</svg>
