<svg width="20" height="20" viewBox="0 0 20 20" fill="none" xmlns="http://www.w3.org/2000/svg">
<path d="M13.5404 18.7487C14.3458 18.7487 14.9987 18.0958 14.9987 17.2904C14.9987 16.4849 14.3458 15.832 13.5404 15.832C12.7349 15.832 12.082 16.4849 12.082 17.2904C12.082 18.0958 12.7349 18.7487 13.5404 18.7487Z" fill="#FFFEFE"/>
<path d="M6.8763 18.7487C7.68172 18.7487 8.33464 18.0958 8.33464 17.2904C8.33464 16.4849 7.68172 15.832 6.8763 15.832C6.07089 15.832 5.41797 16.4849 5.41797 17.2904C5.41797 18.0958 6.07089 18.7487 6.8763 18.7487Z" fill="#FFFEFE"/>
<path d="M4.03464 3.28464L3.86797 5.3263C3.83464 5.71797 4.14297 6.04297 4.53464 6.04297H17.293C17.643 6.04297 17.9346 5.7763 17.9596 5.4263C18.068 3.9513 16.943 2.7513 15.468 2.7513H5.2263C5.14297 2.38464 4.9763 2.03464 4.71797 1.74297C4.3013 1.3013 3.71797 1.04297 3.11797 1.04297H1.66797C1.3263 1.04297 1.04297 1.3263 1.04297 1.66797C1.04297 2.00964 1.3263 2.29297 1.66797 2.29297H3.11797C3.3763 2.29297 3.61797 2.4013 3.79297 2.58464C3.96797 2.7763 4.0513 3.0263 4.03464 3.28464Z" fill="#FFFEFE"/>
<path d="M17.0904 7.29297H4.30708C3.95708 7.29297 3.67374 7.55964 3.64041 7.9013L3.34041 11.5263C3.22374 12.9513 4.34041 14.168 5.76541 14.168H15.0321C16.2821 14.168 17.3821 13.143 17.4737 11.893L17.7487 8.0013C17.7821 7.61797 17.4821 7.29297 17.0904 7.29297Z" fill="#FFFEFE"/>
</svg>
